ply
format ascii 1.0
comment Created by Blender 3.1.0 - www.blender.org
element vertex 344
property float x
property float y
property float z
property float nx
property float ny
property float nz
property uchar red
property uchar green
property uchar blue
property uchar alpha
element face 254
property list uchar uint vertex_indices
end_header
1.970105 -1.148253 0.321491 0.171702 -0.171705 -0.970070 177 173 172 255
1.970105 -1.155324 0.324540 0.146288 -0.728498 -0.669247 169 165 162 255
-1.970105 -1.155324 0.324540 -0.146288 -0.728498 -0.669247 64 43 26 255
-1.970105 -1.148253 0.321491 -0.171702 -0.171705 -0.970070 66 45 30 255
1.970105 -1.158253 0.331903 0.188038 -0.965312 -0.181149 87 72 64 255
-1.970105 -1.158253 0.331903 -0.188038 -0.965312 -0.181149 64 43 26 255
1.970105 -1.158253 0.412769 0.188038 -0.965312 0.181149 67 47 33 255
-1.970105 -1.158253 0.412769 -0.188038 -0.965312 0.181149 64 42 25 255
1.970105 -1.155324 0.420132 0.146288 -0.728499 0.669245 68 48 35 255
-1.970105 -1.155324 0.420132 -0.146288 -0.728499 0.669246 64 42 25 255
1.970105 -1.148253 0.423181 0.171703 -0.171706 0.970070 68 48 35 255
-1.970105 -1.148253 0.423181 -0.171703 -0.171706 0.970070 64 42 25 255
1.975105 -1.153253 0.324540 0.535538 -0.535544 -0.652987 164 159 157 255
1.977176 -1.155324 0.331903 0.695531 -0.695527 -0.180217 86 72 64 255
1.977176 -1.155324 0.412769 0.695531 -0.695527 0.180217 67 47 33 255
1.975105 -1.153253 0.420132 0.535539 -0.535545 0.652986 69 49 36 255
1.977176 -1.148253 0.324540 0.728500 -0.146291 -0.669244 161 157 154 255
1.980105 -1.148253 0.331903 0.965313 -0.188037 -0.181145 85 71 63 255
1.980105 -1.148253 0.412769 0.965313 -0.188037 0.181145 67 47 33 255
1.977176 -1.148253 0.420132 0.728500 -0.146291 0.669243 69 49 36 255
1.970105 1.148253 0.321491 0.171703 0.171706 -0.970070 168 164 162 255
1.977176 1.148253 0.324541 0.728500 0.146291 -0.669243 155 150 148 255
1.980105 1.148253 0.331903 0.965313 0.188037 -0.181145 84 70 62 255
1.980105 1.148253 0.412769 0.965313 0.188037 0.181145 68 48 34 255
1.977176 1.148253 0.420132 0.728500 0.146291 0.669244 69 49 36 255
1.970105 1.148253 0.423182 0.171702 0.171705 0.970070 69 49 36 255
1.975105 1.153253 0.324541 0.535539 0.535545 -0.652985 97 85 78 255
1.977176 1.155324 0.331903 0.695531 0.695527 -0.180217 83 69 60 255
1.977176 1.155324 0.412769 0.695531 0.695527 0.180217 68 48 34 255
1.975105 1.153253 0.420132 0.535538 0.535544 0.652987 69 50 37 255
1.970105 1.155324 0.324541 0.146288 0.728499 -0.669245 153 148 145 255
1.970105 1.158253 0.331903 0.188038 0.965312 -0.181149 83 68 59 255
1.970105 1.158253 0.412769 0.188038 0.965312 0.181149 67 47 32 255
1.970105 1.155324 0.420132 0.146288 0.728498 0.669247 69 49 36 255
-1.970105 1.148253 0.321491 -0.171703 0.171706 -0.970070 112 102 98 255
-1.970105 1.155324 0.324541 -0.146288 0.728499 -0.669246 98 87 80 255
-1.970105 1.158253 0.331903 -0.188038 0.965312 -0.181149 82 67 59 255
-1.970105 1.158253 0.412769 -0.188038 0.965312 0.181149 66 45 29 255
-1.970105 1.155324 0.420132 -0.146288 0.728498 0.669247 65 45 29 255
-1.970105 1.148253 0.423182 -0.171702 0.171705 0.970070 65 43 27 255
-1.975105 1.153253 0.324541 -0.535539 0.535545 -0.652986 95 83 77 255
-1.977176 1.155324 0.331903 -0.695531 0.695527 -0.180217 79 63 53 255
-1.977176 1.155324 0.412769 -0.695531 0.695527 0.180217 65 44 29 255
-1.975105 1.153253 0.420132 -0.535538 0.535544 0.652987 65 44 28 255
-1.977176 1.148253 0.324541 -0.728500 0.146291 -0.669243 92 80 74 255
-1.980105 1.148253 0.331903 -0.965313 0.188037 -0.181145 77 60 50 255
-1.980105 1.148253 0.412769 -0.965313 0.188037 0.181145 64 43 27 255
-1.977176 1.148253 0.420132 -0.728500 0.146291 0.669244 65 43 26 255
-1.977176 -1.148253 0.324540 -0.728500 -0.146291 -0.669244 64 43 26 255
-1.980105 -1.148253 0.331903 -0.965313 -0.188037 -0.181145 64 42 26 255
-1.980105 -1.148253 0.412769 -0.965313 -0.188037 0.181145 64 42 25 255
-1.977176 -1.148253 0.420132 -0.728500 -0.146291 0.669243 64 42 25 255
-1.975105 -1.153253 0.324540 -0.535538 -0.535544 -0.652987 64 43 26 255
-1.977176 -1.155324 0.331903 -0.695531 -0.695527 -0.180217 64 42 26 255
-1.977176 -1.155324 0.412769 -0.695531 -0.695527 0.180217 64 42 25 255
-1.975105 -1.153253 0.420132 -0.535539 -0.535545 0.652986 64 42 25 255
-1.710471 0.866773 0.084702 -0.683665 0.728873 0.036689 97 69 18 255
-1.728171 0.852594 0.084913 -0.374946 0.926498 0.031904 97 69 18 255
-1.729257 0.854712 0.318806 -0.372371 0.928029 -0.010132 97 69 18 255
-1.711558 0.868893 0.318760 -0.684179 0.729248 -0.009780 97 69 18 255
-1.740711 0.851495 0.085262 0.310307 0.950560 0.012009 97 69 18 255
-1.741795 0.853610 0.318758 0.320093 0.947360 -0.007092 97 69 18 255
-1.764540 0.873228 0.086459 0.673770 0.738933 -0.003563 97 69 18 255
-1.765617 0.875329 0.318451 0.673770 0.738933 -0.003563 97 69 18 255
-1.788368 0.894961 0.087655 0.909030 0.416351 -0.017793 97 69 18 255
-1.789438 0.897048 0.318143 0.913889 0.405965 0.000567 97 69 18 255
-1.788427 0.907551 0.087939 0.959055 -0.281063 -0.034884 97 69 18 255
-1.789495 0.909635 0.318029 0.958409 -0.285312 0.007034 97 69 18 255
-1.775937 0.926481 0.087990 0.788759 -0.613574 -0.037244 97 69 18 255
-1.777004 0.928563 0.317916 0.789181 -0.614091 0.009225 97 69 18 255
-1.718839 0.989101 0.087688 0.738340 -0.673409 -0.037079 97 69 18 255
-1.719907 0.991183 0.317614 0.738927 -0.673719 0.009531 97 69 18 255
-1.661742 1.051720 0.087386 0.683402 -0.729120 -0.036687 97 69 18 255
-1.662810 1.053802 0.317312 0.684179 -0.729249 0.009780 97 69 18 255
-1.644042 1.065900 0.087175 0.367995 -0.929285 -0.031759 97 69 18 255
-1.645111 1.067983 0.317266 0.372366 -0.928030 0.010132 97 69 18 255
-1.631502 1.066998 0.086826 -0.330973 -0.943573 -0.011236 97 69 18 255
-1.632572 1.069085 0.317314 -0.320096 -0.947358 0.007092 97 69 18 255
-1.607674 1.045265 0.085629 -0.673770 -0.738933 0.003563 97 69 18 255
-1.608751 1.047366 0.317621 -0.673770 -0.738933 0.003563 97 69 18 255
-1.583845 1.023532 0.084433 -0.917885 -0.396414 0.018503 97 69 18 255
-1.584929 1.025647 0.317929 -0.913888 -0.405965 -0.000567 97 69 18 255
-1.583786 1.010942 0.084149 -0.956919 0.288240 0.034981 97 69 18 255
-1.584872 1.013060 0.318043 -0.958408 0.285314 -0.007034 97 69 18 255
-1.596277 0.992012 0.084098 -0.788536 0.613859 0.037243 97 69 18 255
-1.597364 0.994132 0.318156 -0.789180 0.614092 -0.009225 97 69 18 255
-1.653374 0.929393 0.084400 -0.738340 0.673409 0.037079 97 69 18 255
-1.654461 0.931512 0.318458 -0.738927 0.673719 -0.009531 97 69 18 255
-1.843774 0.978341 -1.985235 -0.681411 0.727171 0.083076 97 69 18 255
-1.861463 0.964153 -1.984860 -0.369871 0.926152 0.073738 97 69 18 255
-1.873978 0.963033 -1.984115 0.321211 0.946522 0.030331 97 69 18 255
-1.897710 0.984685 -1.981419 0.673770 0.738933 -0.003563 97 69 18 255
-1.921442 1.006337 -1.978724 0.912773 0.406802 -0.036856 97 69 18 255
-1.921475 1.018906 -1.978044 0.955908 -0.283436 -0.076837 97 69 18 255
-1.908974 1.037827 -1.977830 0.786412 -0.612015 -0.083632 97 69 18 255
-1.851877 1.100447 -1.978131 0.736149 -0.671635 -0.083608 97 69 18 255
-1.794780 1.163066 -1.978433 0.681411 -0.727171 -0.083076 97 69 18 255
-1.777091 1.177254 -1.978808 0.369869 -0.926153 -0.073738 97 69 18 255
-1.764576 1.178374 -1.979553 -0.321211 -0.946522 -0.030331 97 69 18 255
-1.740844 1.156722 -1.982249 -0.673770 -0.738933 0.003563 97 69 18 255
-1.717112 1.135070 -1.984944 -0.912772 -0.406802 0.036856 97 69 18 255
-1.717078 1.122501 -1.985623 -0.955907 0.283439 0.076837 97 69 18 255
-1.729580 1.103580 -1.985839 -0.786411 0.612015 0.083632 97 69 18 255
-1.786677 1.040961 -1.985537 -0.736149 0.671635 0.083608 97 69 18 255
-1.586979 -0.998554 0.096826 -0.860964 -0.506874 0.042654 97 69 18 255
-1.577029 -1.018933 0.097067 -0.986037 -0.162327 0.037160 97 69 18 255
-1.578233 -1.018647 0.330973 -0.987164 -0.159637 -0.004888 97 69 18 255
-1.588184 -0.998268 0.330897 -0.861662 -0.507469 -0.003817 97 69 18 255
-1.578708 -1.031407 0.097471 -0.859216 0.511418 0.014129 97 69 18 255
-1.579910 -1.031122 0.330979 -0.854034 0.520192 -0.005032 97 69 18 255
-1.605135 -1.049880 0.098862 -0.573055 0.819507 -0.003951 97 69 18 255
-1.606329 -1.049597 0.330866 -0.573055 0.819508 -0.003951 97 69 18 255
-1.631561 -1.068353 0.100253 -0.206781 0.978172 -0.020504 97 69 18 255
-1.632748 -1.068071 0.330752 -0.195492 0.980703 -0.002204 97 69 18 255
-1.643856 -1.065646 0.100584 0.484524 0.873842 -0.040459 97 69 18 255
-1.645041 -1.065365 0.330686 0.488727 0.872436 0.001452 97 69 18 255
-1.659583 -1.049305 0.100647 0.771540 0.634708 -0.043270 97 69 18 255
-1.660767 -1.049024 0.330585 0.772356 0.635181 0.003202 97 69 18 255
-1.708145 -0.979857 0.100313 0.818850 0.572387 -0.043093 97 69 18 255
-1.709329 -0.979577 0.330250 0.819501 0.573067 0.003520 97 69 18 255
-1.756708 -0.910410 0.099978 0.861147 0.506563 -0.042652 97 69 18 255
-1.757892 -0.910129 0.329915 0.861662 0.507468 0.003817 97 69 18 255
-1.766658 -0.890031 0.099737 0.987231 0.154936 -0.036993 97 69 18 255
-1.767843 -0.889750 0.329839 0.987164 0.159636 0.004888 97 69 18 255
-1.764979 -0.877556 0.099333 0.847867 -0.530044 -0.013233 97 69 18 255
-1.766166 -0.877275 0.329832 0.854034 -0.520192 0.005033 97 69 18 255
-1.738552 -0.859084 0.097942 0.573055 -0.819507 0.003951 97 69 18 255
-1.739747 -0.858800 0.329946 0.573055 -0.819508 0.003951 97 69 18 255
-1.712125 -0.840611 0.096551 0.185386 -0.982434 0.021331 97 69 18 255
-1.713328 -0.840326 0.330059 0.195492 -0.980703 0.002203 97 69 18 255
-1.699831 -0.843318 0.096220 -0.491057 -0.870182 0.040573 97 69 18 255
-1.701035 -0.843032 0.330126 -0.488726 -0.872436 -0.001452 97 69 18 255
-1.684104 -0.859659 0.096157 -0.771769 -0.634429 0.043269 97 69 18 255
-1.685309 -0.859373 0.330227 -0.772357 -0.635181 -0.003202 97 69 18 255
-1.635542 -0.929106 0.096492 -0.818850 -0.572387 0.043093 97 69 18 255
-1.636747 -0.928820 0.330562 -0.819501 -0.573067 -0.003520 97 69 18 255
-1.734818 -1.111905 -1.971659 -0.858590 -0.504874 0.089032 97 69 18 255
-1.724856 -1.132275 -1.971254 -0.984389 -0.157292 0.078975 97 69 18 255
-1.726506 -1.144727 -1.970454 -0.852796 0.521239 0.032387 97 69 18 255
-1.752826 -1.163118 -1.967565 -0.573055 0.819507 -0.003951 97 69 18 255
-1.779145 -1.181509 -1.964676 -0.196733 0.979656 -0.039623 97 69 18 255
-1.791412 -1.178780 -1.963949 0.485950 0.870092 -0.082412 97 69 18 255
-1.807127 -1.162430 -1.963722 0.769285 0.632585 -0.089647 97 69 18 255
-1.855689 -1.092983 -1.964057 0.816420 0.570463 -0.089612 97 69 18 255
-1.904252 -1.023535 -1.964391 0.858589 0.504874 -0.089032 97 69 18 255
-1.914214 -1.003165 -1.964796 0.984389 0.157293 -0.078976 97 69 18 255
-1.912563 -0.990713 -1.965596 0.852796 -0.521239 -0.032387 97 69 18 255
-1.886243 -0.972322 -1.968485 0.573055 -0.819507 0.003951 97 69 18 255
-1.859924 -0.953931 -1.971374 0.196730 -0.979657 0.039624 97 69 18 255
-1.847657 -0.956660 -1.972101 -0.485954 -0.870090 0.082412 97 69 18 255
-1.831942 -0.973010 -1.972328 -0.769285 -0.632585 0.089647 97 69 18 255
-1.783380 -1.042457 -1.971994 -0.816420 -0.570463 0.089612 97 69 18 255
1.734338 0.875394 0.088268 -0.683666 -0.728687 -0.040207 97 69 18 255
1.752190 0.861091 0.088411 -0.374947 -0.926332 -0.036374 97 69 18 255
1.753286 0.862090 0.324331 -0.372372 -0.928066 0.005658 97 69 18 255
1.735434 0.876393 0.324353 -0.684180 -0.729286 0.006264 97 69 18 255
1.764838 0.859982 0.088758 0.310305 -0.950492 -0.016593 97 69 18 255
1.765932 0.860979 0.324277 0.320092 -0.947383 0.002524 97 69 18 255
1.788872 0.881896 0.090071 0.673768 -0.738943 -0.000000 97 69 18 255
1.789959 0.882887 0.324073 0.673768 -0.738943 -0.000000 97 69 18 255
1.812906 0.903810 0.091384 0.909028 -0.416435 0.015787 97 69 18 255
1.813986 0.904794 0.323868 0.913888 -0.405960 -0.002525 97 69 18 255
1.812966 0.916507 0.091731 0.959056 0.280889 0.036242 97 69 18 255
1.814043 0.917489 0.323814 0.958409 0.285341 -0.005658 97 69 18 255
1.800368 0.935600 0.091874 0.788759 0.613386 0.040205 97 69 18 255
1.801445 0.936582 0.323792 0.789182 0.614128 -0.006264 97 69 18 255
1.742778 0.998760 0.091874 0.738341 0.673221 0.040329 97 69 18 255
1.743855 0.999742 0.323792 0.738928 0.673755 -0.006283 97 69 18 255
1.685189 1.061920 0.091874 0.683402 0.728934 0.040205 97 69 18 255
1.686266 1.062901 0.323792 0.684180 0.729286 -0.006264 97 69 18 255
1.667337 1.076222 0.091731 0.367999 0.929120 0.036242 97 69 18 255
1.668415 1.077205 0.323814 0.372372 0.928066 -0.005658 97 69 18 255
1.654689 1.077332 0.091384 -0.330970 0.943509 0.015787 97 69 18 255
1.655768 1.078316 0.323868 -0.320092 0.947383 -0.002524 97 69 18 255
1.630655 1.055418 0.090071 -0.673768 0.738943 0.000000 97 69 18 255
1.631741 1.056408 0.324073 -0.673768 0.738943 0.000000 97 69 18 255
1.606621 1.033504 0.088758 -0.917884 0.396501 -0.016593 97 69 18 255
1.607714 1.034501 0.324277 -0.913887 0.405961 0.002525 97 69 18 255
1.606561 1.020807 0.088411 -0.956919 -0.288067 -0.036374 97 69 18 255
1.607657 1.021806 0.324331 -0.958408 -0.285344 0.005658 97 69 18 255
1.619160 1.001714 0.088268 -0.788537 -0.613672 -0.040206 97 69 18 255
1.620256 1.002713 0.324353 -0.789180 -0.614129 0.006264 97 69 18 255
1.676749 0.938554 0.088268 -0.738341 -0.673220 -0.040329 97 69 18 255
1.677845 0.939553 0.324353 -0.738928 -0.673755 0.006283 97 69 18 255
1.868790 0.997988 -1.998749 -0.681412 -0.726760 -0.086589 97 69 18 255
1.886631 0.983675 -1.998441 -0.369870 -0.925786 -0.078210 97 69 18 255
1.899254 0.982542 -1.997694 0.321209 -0.946365 -0.034897 97 69 18 255
1.923190 1.004367 -1.994870 0.673768 -0.738943 -0.000000 97 69 18 255
1.947127 1.026193 -1.992046 0.912772 -0.406977 0.034897 97 69 18 255
1.947161 1.038866 -1.991299 0.955908 0.283061 0.078210 97 69 18 255
1.934552 1.057949 -1.990991 0.786412 0.611603 0.086589 97 69 18 255
1.876963 1.121109 -1.990991 0.736150 0.671223 0.086853 97 69 18 255
1.819373 1.184269 -1.990991 0.681410 0.726761 0.086589 97 69 18 255
1.801532 1.198581 -1.991299 0.369872 0.925785 0.078210 97 69 18 255
1.788909 1.199715 -1.992046 -0.321205 0.946366 0.034898 97 69 18 255
1.764973 1.177889 -1.994870 -0.673769 0.738942 0.000000 97 69 18 255
1.741036 1.156064 -1.997694 -0.912771 0.406978 -0.034897 97 69 18 255
1.741002 1.143391 -1.998441 -0.955908 -0.283061 -0.078210 97 69 18 255
1.753611 1.124307 -1.998749 -0.786412 -0.611604 -0.086589 97 69 18 255
1.811200 1.061147 -1.998749 -0.736150 -0.671222 -0.086853 97 69 18 255
1.609782 -1.006039 0.088268 -0.860965 0.507072 -0.040206 97 69 18 255
1.599746 -1.026594 0.088411 -0.986038 0.162500 -0.036374 97 69 18 255
1.600961 -1.027444 0.324331 -0.987164 0.159607 0.005658 97 69 18 255
1.610998 -1.006889 0.324353 -0.861663 0.507443 0.006264 97 69 18 255
1.601439 -1.039178 0.088758 -0.859214 -0.511347 -0.016593 97 69 18 255
1.602652 -1.040026 0.324277 -0.854032 -0.520214 0.002524 97 69 18 255
1.628094 -1.057816 0.090071 -0.573054 -0.819518 -0.000000 97 69 18 255
1.629299 -1.058659 0.324072 -0.573054 -0.819518 -0.000000 97 69 18 255
1.654748 -1.076455 0.091384 -0.206776 -0.978261 0.015787 97 69 18 255
1.655946 -1.077292 0.323868 -0.195490 -0.980702 -0.002525 97 69 18 255
1.667149 -1.073726 0.091731 0.484526 -0.874026 0.036242 97 69 18 255
1.668344 -1.074562 0.323814 0.488728 -0.872418 -0.005658 97 69 18 255
1.683011 -1.057245 0.091874 0.771540 -0.634909 0.040205 97 69 18 255
1.684206 -1.058080 0.323792 0.772358 -0.635157 -0.006264 97 69 18 255
1.731992 -0.987198 0.091874 0.818851 -0.572587 0.040329 97 69 18 255
1.733186 -0.988033 0.323792 0.819502 -0.573042 -0.006283 97 69 18 255
1.780973 -0.917151 0.091874 0.861149 -0.506761 0.040205 97 69 18 255
1.782167 -0.917986 0.323792 0.861663 -0.507443 -0.006264 97 69 18 255
1.791009 -0.896595 0.091731 0.987232 -0.155108 0.036242 97 69 18 255
1.792204 -0.897431 0.323814 0.987164 -0.159607 -0.005658 97 69 18 255
1.789316 -0.884012 0.091384 0.847866 0.529976 0.015787 97 69 18 255
1.790513 -0.884849 0.323868 0.854033 0.520213 -0.002524 97 69 18 255
1.762661 -0.865373 0.090071 0.573054 0.819518 0.000000 97 69 18 255
1.763866 -0.866216 0.324072 0.573054 0.819518 0.000000 97 69 18 255
1.736006 -0.846735 0.088758 0.185384 0.982526 -0.016593 97 69 18 255
1.737219 -0.847583 0.324277 0.195491 0.980702 0.002525 97 69 18 255
1.723606 -0.849463 0.088411 -0.491059 0.870367 -0.036374 97 69 18 255
1.724821 -0.850313 0.324331 -0.488728 0.872418 0.005658 97 69 18 255
1.707743 -0.865945 0.088268 -0.771770 0.634629 -0.040206 97 69 18 255
1.708959 -0.866795 0.324353 -0.772358 0.635157 0.006264 97 69 18 255
1.658763 -0.935992 0.088268 -0.818851 0.572587 -0.040329 97 69 18 255
1.659978 -0.936842 0.324353 -0.819502 0.573042 0.006283 97 69 18 255
1.758894 -1.110306 -1.998750 -0.858591 0.505295 -0.086589 97 69 18 255
1.748847 -1.130854 -1.998441 -0.984391 0.157666 -0.078209 97 69 18 255
1.750511 -1.143417 -1.997694 -0.852795 -0.521079 -0.034897 97 69 18 255
1.777058 -1.161980 -1.994870 -0.573054 -0.819518 -0.000000 97 69 18 255
1.803605 -1.180543 -1.992046 -0.196725 -0.979838 0.034897 97 69 18 255
1.815976 -1.177794 -1.991300 0.485954 -0.870478 0.078209 97 69 18 255
1.831827 -1.161305 -1.990991 0.769285 -0.633011 0.086589 97 69 18 255
1.880808 -1.091258 -1.990991 0.816421 -0.570888 0.086853 97 69 18 255
1.929789 -1.021211 -1.990991 0.858592 -0.505295 0.086589 97 69 18 255
1.939836 -1.000664 -1.991300 0.984390 -0.157667 0.078209 97 69 18 255
1.938172 -0.988100 -1.992046 0.852796 0.521078 0.034897 97 69 18 255
1.911625 -0.969537 -1.994870 0.573053 0.819518 0.000000 97 69 18 255
1.885078 -0.950974 -1.997694 0.196728 0.979837 -0.034897 97 69 18 255
1.872707 -0.953723 -1.998441 -0.485954 0.870478 -0.078209 97 69 18 255
1.856856 -0.970212 -1.998750 -0.769286 0.633009 -0.086589 97 69 18 255
1.807875 -1.040259 -1.998750 -0.816421 0.570888 -0.086853 97 69 18 255
1.626196 0.900420 0.324708 -0.952597 -0.304235 -0.000000 97 69 18 255
1.603664 0.932097 0.324708 -0.559826 -0.828610 -0.000000 97 69 18 255
1.603664 0.932097 0.126267 -0.559826 -0.828610 -0.000000 97 69 18 255
1.626196 0.900420 0.126267 -0.952597 -0.304235 -0.000000 97 69 18 255
1.549165 0.945192 0.324708 -0.117639 -0.993056 -0.000000 97 69 18 255
1.549165 0.945193 0.126267 -0.117639 -0.993056 -0.000000 97 69 18 255
0.000000 0.945192 0.324708 0.000000 -1.000000 -0.000000 97 69 18 255
0.000000 0.945193 0.126267 0.000000 -1.000000 -0.000000 97 69 18 255
-1.549165 0.945192 0.324708 0.117639 -0.993056 -0.000000 97 69 18 255
-1.549165 0.945193 0.126267 0.117639 -0.993056 -0.000000 97 69 18 255
-1.603664 0.932097 0.324708 0.559826 -0.828610 -0.000000 97 69 18 255
-1.603664 0.932097 0.126267 0.559826 -0.828610 -0.000000 97 69 18 255
-1.626196 0.900420 0.324708 0.952597 -0.304235 -0.000000 97 69 18 255
-1.626196 0.900420 0.126267 0.952597 -0.304235 -0.000000 97 69 18 255
-1.626196 -0.000000 0.324708 1.000000 0.000000 0.000000 97 69 18 255
-1.626196 0.000000 0.126267 1.000000 0.000000 0.000000 97 69 18 255
-1.626196 -0.900420 0.324707 0.952597 0.304235 0.000000 97 69 18 255
-1.626196 -0.900420 0.126267 0.952597 0.304235 0.000000 97 69 18 255
-1.603664 -0.932097 0.324707 0.559826 0.828610 0.000000 97 69 18 255
-1.603664 -0.932097 0.126267 0.559826 0.828610 0.000000 97 69 18 255
-1.549165 -0.945193 0.324707 0.117639 0.993056 0.000000 97 69 18 255
-1.549165 -0.945193 0.126267 0.117639 0.993056 0.000000 97 69 18 255
0.000000 -0.945193 0.324707 0.000000 1.000000 0.000000 97 69 18 255
0.000000 -0.945193 0.126267 0.000000 1.000000 0.000000 97 69 18 255
1.549165 -0.945193 0.324707 -0.117639 0.993056 0.000000 97 69 18 255
1.549165 -0.945193 0.126267 -0.117639 0.993056 0.000000 97 69 18 255
1.603664 -0.932097 0.324707 -0.559826 0.828610 0.000000 97 69 18 255
1.603664 -0.932097 0.126267 -0.559826 0.828610 0.000000 97 69 18 255
1.626196 -0.900420 0.324707 -0.952597 0.304235 0.000000 97 69 18 255
1.626196 -0.900420 0.126267 -0.952597 0.304235 0.000000 97 69 18 255
1.626196 -0.000000 0.324708 -1.000000 0.000000 0.000000 97 69 18 255
1.626196 0.000000 0.126267 -1.000000 0.000000 0.000000 97 69 18 255
1.689254 0.981844 0.126267 0.559826 0.828610 0.000000 97 69 18 255
1.689254 0.981844 0.324708 0.559826 0.828610 0.000000 97 69 18 255
1.711785 0.950167 0.324708 0.952597 0.304235 0.000000 97 69 18 255
1.711785 0.950167 0.126267 0.952597 0.304235 0.000000 97 69 18 255
1.634755 0.994940 0.126267 0.117639 0.993056 0.000000 97 69 18 255
1.634755 0.994939 0.324708 0.117639 0.993056 0.000000 97 69 18 255
0.000000 0.994940 0.126267 0.000000 1.000000 0.000000 97 69 18 255
0.000000 0.994939 0.324708 0.000000 1.000000 0.000000 97 69 18 255
-1.634755 0.994940 0.126267 -0.117639 0.993056 0.000000 97 69 18 255
-1.634755 0.994939 0.324708 -0.117639 0.993056 0.000000 97 69 18 255
-1.689254 0.981844 0.126267 -0.559826 0.828610 0.000000 97 69 18 255
-1.689254 0.981844 0.324708 -0.559826 0.828610 0.000000 97 69 18 255
-1.711785 0.950167 0.126267 -0.952597 0.304235 0.000000 97 69 18 255
-1.711785 0.950167 0.324708 -0.952597 0.304235 0.000000 97 69 18 255
-1.711785 0.000000 0.126267 -1.000000 0.000000 0.000000 97 69 18 255
-1.711785 -0.000000 0.324708 -1.000000 0.000000 0.000000 97 69 18 255
-1.711785 -0.950167 0.126267 -0.952597 -0.304235 -0.000000 97 69 18 255
-1.711785 -0.950167 0.324707 -0.952597 -0.304235 -0.000000 97 69 18 255
-1.689254 -0.981844 0.126267 -0.559826 -0.828610 -0.000000 97 69 18 255
-1.689254 -0.981844 0.324707 -0.559826 -0.828610 -0.000000 97 69 18 255
-1.634755 -0.994940 0.126267 -0.117639 -0.993056 -0.000000 97 69 18 255
-1.634755 -0.994940 0.324707 -0.117639 -0.993056 -0.000000 97 69 18 255
0.000000 -0.994940 0.126267 0.000000 -1.000000 -0.000000 97 69 18 255
0.000000 -0.994940 0.324707 0.000000 -1.000000 -0.000000 97 69 18 255
1.634755 -0.994940 0.126267 0.117639 -0.993056 -0.000000 97 69 18 255
1.634755 -0.994940 0.324707 0.117639 -0.993056 -0.000000 97 69 18 255
1.689254 -0.981844 0.126267 0.559826 -0.828610 -0.000000 97 69 18 255
1.689254 -0.981844 0.324707 0.559826 -0.828610 -0.000000 97 69 18 255
1.711785 -0.950167 0.126267 0.952597 -0.304235 -0.000000 97 69 18 255
1.711785 -0.950167 0.324707 0.952597 -0.304235 -0.000000 97 69 18 255
1.711785 0.000000 0.126267 1.000000 0.000000 0.000000 97 69 18 255
1.711785 -0.000000 0.324708 1.000000 0.000000 0.000000 97 69 18 255
1.626196 0.900420 0.126267 -0.000000 0.000000 -1.000000 97 69 18 255
1.689254 0.981844 0.126267 -0.000000 0.000000 -1.000000 97 69 18 255
1.711785 0.950167 0.126267 -0.000000 0.000000 -1.000000 97 69 18 255
1.711785 0.000000 0.126267 0.000000 0.000000 -1.000000 97 69 18 255
1.603664 0.932097 0.126267 0.000000 0.000000 -1.000000 97 69 18 255
1.634755 0.994940 0.126267 0.000000 0.000000 -1.000000 97 69 18 255
1.549165 0.945193 0.126267 0.000000 0.000000 -1.000000 97 69 18 255
0.000000 0.994940 0.126267 0.000000 0.000000 -1.000000 97 69 18 255
-1.549165 0.945193 0.126267 -0.000000 0.000000 -1.000000 97 69 18 255
-1.634755 0.994940 0.126267 -0.000000 0.000000 -1.000000 97 69 18 255
0.000000 0.945193 0.126267 0.000000 0.000000 -1.000000 97 69 18 255
-1.603664 0.932097 0.126267 -0.000000 0.000000 -1.000000 97 69 18 255
-1.689254 0.981844 0.126267 0.000000 0.000000 -1.000000 97 69 18 255
-1.626196 0.900420 0.126267 0.000000 0.000000 -1.000000 97 69 18 255
-1.711785 0.950167 0.126267 0.000000 0.000000 -1.000000 97 69 18 255
-1.711785 0.000000 0.126267 0.000000 0.000000 -1.000000 97 69 18 255
-1.626196 0.000000 0.126267 0.000000 0.000000 -1.000000 97 69 18 255
-1.626196 -0.900420 0.126267 -0.000000 0.000000 -1.000000 97 69 18 255
-1.711785 -0.950167 0.126267 -0.000000 0.000000 -1.000000 97 69 18 255
-1.689254 -0.981844 0.126267 -0.000000 0.000000 -1.000000 97 69 18 255
-1.603664 -0.932097 0.126267 0.000000 0.000000 -1.000000 97 69 18 255
-1.634755 -0.994940 0.126267 0.000000 0.000000 -1.000000 97 69 18 255
-1.549165 -0.945193 0.126267 0.000000 0.000000 -1.000000 97 69 18 255
0.000000 -0.994940 0.126267 0.000000 0.000000 -1.000000 97 69 18 255
1.549165 -0.945193 0.126267 -0.000000 0.000000 -1.000000 97 69 18 255
1.634755 -0.994940 0.126267 -0.000000 0.000000 -1.000000 97 69 18 255
0.000000 -0.945193 0.126267 0.000000 0.000000 -1.000000 97 69 18 255
1.603664 -0.932097 0.126267 -0.000000 0.000000 -1.000000 97 69 18 255
1.689254 -0.981844 0.126267 0.000000 0.000000 -1.000000 97 69 18 255
1.626196 -0.900420 0.126267 0.000000 0.000000 -1.000000 97 69 18 255
1.711785 -0.950167 0.126267 0.000000 0.000000 -1.000000 97 69 18 255
1.626196 0.000000 0.126267 0.000000 0.000000 -1.000000 97 69 18 255
4 0 1 2 3
4 1 4 5 2
4 4 6 7 5
4 6 8 9 7
4 8 10 11 9
3 12 1 0
4 12 13 4 1
4 13 14 6 4
4 14 15 8 6
3 15 10 8
3 16 12 0
4 16 17 13 12
4 17 18 14 13
4 18 19 15 14
3 19 10 15
4 20 21 16 0
4 21 22 17 16
4 22 23 18 17
4 23 24 19 18
4 24 25 10 19
3 26 21 20
4 26 27 22 21
4 27 28 23 22
4 28 29 24 23
3 29 25 24
3 30 26 20
4 30 31 27 26
4 31 32 28 27
4 32 33 29 28
3 33 25 29
4 34 35 30 20
4 35 36 31 30
4 36 37 32 31
4 37 38 33 32
4 38 39 25 33
3 40 35 34
4 40 41 36 35
4 41 42 37 36
4 42 43 38 37
3 43 39 38
3 44 40 34
4 44 45 41 40
4 45 46 42 41
4 46 47 43 42
3 47 39 43
4 3 48 44 34
4 48 49 45 44
4 49 50 46 45
4 50 51 47 46
4 51 11 39 47
3 52 48 3
4 52 53 49 48
4 53 54 50 49
4 54 55 51 50
3 55 11 51
3 2 52 3
4 2 5 53 52
4 5 7 54 53
4 7 9 55 54
3 9 11 55
4 10 25 39 11
4 34 20 0 3
4 56 57 58 59
4 57 60 61 58
4 60 62 63 61
4 62 64 65 63
4 64 66 67 65
4 66 68 69 67
4 68 70 71 69
4 70 72 73 71
4 72 74 75 73
4 74 76 77 75
4 76 78 79 77
4 78 80 81 79
4 80 82 83 81
4 82 84 85 83
4 84 86 87 85
4 86 56 59 87
4 88 89 57 56
4 89 90 60 57
4 90 91 62 60
4 91 92 64 62
4 92 93 66 64
4 93 94 68 66
4 94 95 70 68
4 95 96 72 70
4 96 97 74 72
4 97 98 76 74
4 98 99 78 76
4 99 100 80 78
4 100 101 82 80
4 101 102 84 82
4 102 103 86 84
4 103 88 56 86
4 104 105 106 107
4 105 108 109 106
4 108 110 111 109
4 110 112 113 111
4 112 114 115 113
4 114 116 117 115
4 116 118 119 117
4 118 120 121 119
4 120 122 123 121
4 122 124 125 123
4 124 126 127 125
4 126 128 129 127
4 128 130 131 129
4 130 132 133 131
4 132 134 135 133
4 134 104 107 135
4 136 137 105 104
4 137 138 108 105
4 138 139 110 108
4 139 140 112 110
4 140 141 114 112
4 141 142 116 114
4 142 143 118 116
4 143 144 120 118
4 144 145 122 120
4 145 146 124 122
4 146 147 126 124
4 147 148 128 126
4 148 149 130 128
4 149 150 132 130
4 150 151 134 132
4 151 136 104 134
4 152 153 154 155
4 153 156 157 154
4 156 158 159 157
4 158 160 161 159
4 160 162 163 161
4 162 164 165 163
4 164 166 167 165
4 166 168 169 167
4 168 170 171 169
4 170 172 173 171
4 172 174 175 173
4 174 176 177 175
4 176 178 179 177
4 178 180 181 179
4 180 182 183 181
4 182 152 155 183
4 184 185 153 152
4 185 186 156 153
4 186 187 158 156
4 187 188 160 158
4 188 189 162 160
4 189 190 164 162
4 190 191 166 164
4 191 192 168 166
4 192 193 170 168
4 193 194 172 170
4 194 195 174 172
4 195 196 176 174
4 196 197 178 176
4 197 198 180 178
4 198 199 182 180
4 199 184 152 182
4 200 201 202 203
4 201 204 205 202
4 204 206 207 205
4 206 208 209 207
4 208 210 211 209
4 210 212 213 211
4 212 214 215 213
4 214 216 217 215
4 216 218 219 217
4 218 220 221 219
4 220 222 223 221
4 222 224 225 223
4 224 226 227 225
4 226 228 229 227
4 228 230 231 229
4 230 200 203 231
4 232 233 201 200
4 233 234 204 201
4 234 235 206 204
4 235 236 208 206
4 236 237 210 208
4 237 238 212 210
4 238 239 214 212
4 239 240 216 214
4 240 241 218 216
4 241 242 220 218
4 242 243 222 220
4 243 244 224 222
4 244 245 226 224
4 245 246 228 226
4 246 247 230 228
4 247 232 200 230
4 248 249 250 251
4 249 252 253 250
4 252 254 255 253
4 254 256 257 255
4 256 258 259 257
4 258 260 261 259
4 260 262 263 261
4 262 264 265 263
4 264 266 267 265
4 266 268 269 267
4 268 270 271 269
4 270 272 273 271
4 272 274 275 273
4 274 276 277 275
4 276 278 279 277
4 278 248 251 279
4 280 281 282 283
4 284 285 281 280
4 286 287 285 284
4 288 289 287 286
4 290 291 289 288
4 292 293 291 290
4 294 295 293 292
4 296 297 295 294
4 298 299 297 296
4 300 301 299 298
4 302 303 301 300
4 304 305 303 302
4 306 307 305 304
4 308 309 307 306
4 310 311 309 308
4 283 282 311 310
3 312 313 314
3 315 312 314
3 316 317 313
3 312 316 313
3 318 319 317
3 316 318 317
3 320 321 319
3 322 320 319
3 318 322 319
3 323 324 321
3 320 323 321
3 325 326 324
3 323 325 324
3 325 327 326
3 325 328 327
3 329 330 327
3 328 329 327
3 329 331 330
3 329 332 331
3 332 333 331
3 334 335 333
3 332 334 333
3 336 337 335
3 338 336 335
3 334 338 335
3 339 340 337
3 336 339 337
3 341 342 340
3 339 341 340
3 341 315 342
3 343 312 315
3 341 343 315
