ply
format ascii 1.0
comment Created by Blender 3.0.1 - www.blender.org
element vertex 48
property float x
property float y
property float z
property float nx
property float ny
property float nz
property float s
property float t
property uchar red
property uchar green
property uchar blue
property uchar alpha
element face 12
property list uchar uint vertex_indices
end_header
-0.036668 -0.059984 -0.000000 -1.000000 -0.000000 0.000000 0.375000 0.000000 4 99 7 255
-0.036668 -0.059984 0.001804 -1.000000 -0.000000 0.000000 0.625000 0.000000 4 99 7 255
-0.036668 0.012997 0.001804 -1.000000 -0.000000 0.000000 0.625000 0.250000 6 99 8 255
-0.036668 0.012997 -0.000000 -1.000000 -0.000000 0.000000 0.375000 0.250000 6 99 8 255
-0.036668 0.012997 -0.000000 0.000000 1.000000 0.000000 0.375000 0.250000 6 99 8 255
-0.036668 0.012997 0.001804 0.000000 1.000000 0.000000 0.625000 0.250000 6 99 8 255
0.161364 0.012997 0.001804 0.000000 1.000000 0.000000 0.625000 0.500000 17 100 18 255
0.161364 0.012997 -0.000000 0.000000 1.000000 0.000000 0.375000 0.500000 17 100 18 255
0.161364 0.012997 -0.000000 1.000000 -0.000000 0.000000 0.375000 0.500000 17 100 18 255
0.161364 0.012997 0.001804 1.000000 -0.000000 0.000000 0.625000 0.500000 17 100 18 255
0.161364 -0.059984 0.001804 1.000000 -0.000000 0.000000 0.625000 0.750000 4 99 7 255
0.161364 -0.059984 -0.000000 1.000000 -0.000000 0.000000 0.375000 0.750000 4 99 7 255
0.161364 -0.059984 -0.000000 0.000000 -1.000000 0.000000 0.375000 0.750000 4 99 7 255
0.161364 -0.059984 0.001804 0.000000 -1.000000 0.000000 0.625000 0.750000 4 99 7 255
-0.036668 -0.059984 0.001804 0.000000 -1.000000 0.000000 0.625000 1.000000 4 99 7 255
-0.036668 -0.059984 -0.000000 0.000000 -1.000000 0.000000 0.375000 1.000000 4 99 7 255
-0.036668 0.012997 -0.000000 0.000000 0.000000 -1.000000 0.125000 0.500000 6 99 8 255
0.161364 0.012997 -0.000000 0.000000 0.000000 -1.000000 0.375000 0.500000 17 100 18 255
0.161364 -0.059984 -0.000000 0.000000 0.000000 -1.000000 0.375000 0.750000 4 99 7 255
-0.036668 -0.059984 -0.000000 0.000000 0.000000 -1.000000 0.125000 0.750000 4 99 7 255
0.161364 0.012997 0.001804 0.000000 -0.000000 1.000000 0.625000 0.500000 17 100 18 255
-0.036668 0.012997 0.001804 0.000000 -0.000000 1.000000 0.875000 0.500000 6 99 8 255
-0.036668 -0.059984 0.001804 0.000000 -0.000000 1.000000 0.875000 0.750000 4 99 7 255
0.161364 -0.059984 0.001804 0.000000 -0.000000 1.000000 0.625000 0.750000 4 99 7 255
-0.032984 -0.056448 0.001804 -1.000000 -0.000000 0.000000 0.375000 0.000000 204 156 95 255
-0.032984 -0.056448 0.002878 -1.000000 -0.000000 0.000000 0.625000 0.000000 204 156 95 255
-0.032984 0.008499 0.002878 -1.000000 -0.000000 0.000000 0.625000 0.250000 204 156 95 255
-0.032984 0.008499 0.001804 -1.000000 -0.000000 0.000000 0.375000 0.250000 204 156 95 255
-0.032984 0.008499 0.001804 0.000000 1.000000 0.000000 0.375000 0.250000 204 156 95 255
-0.032984 0.008499 0.002878 0.000000 1.000000 0.000000 0.625000 0.250000 204 156 95 255
0.158521 0.008499 0.002878 0.000000 1.000000 0.000000 0.625000 0.500000 204 155 93 255
0.158521 0.008499 0.001804 0.000000 1.000000 0.000000 0.375000 0.500000 204 155 93 255
0.158521 0.008499 0.001804 1.000000 -0.000000 0.000000 0.375000 0.500000 204 155 93 255
0.158521 0.008499 0.002878 1.000000 -0.000000 0.000000 0.625000 0.500000 204 155 93 255
0.158521 -0.056448 0.002878 1.000000 -0.000000 0.000000 0.625000 0.750000 204 156 95 255
0.158521 -0.056448 0.001804 1.000000 -0.000000 0.000000 0.375000 0.750000 204 156 95 255
0.158521 -0.056448 0.001804 0.000000 -1.000000 0.000000 0.375000 0.750000 204 156 95 255
0.158521 -0.056448 0.002878 0.000000 -1.000000 0.000000 0.625000 0.750000 204 156 95 255
-0.032984 -0.056448 0.002878 0.000000 -1.000000 0.000000 0.625000 1.000000 204 156 95 255
-0.032984 -0.056448 0.001804 0.000000 -1.000000 0.000000 0.375000 1.000000 204 156 95 255
-0.032984 0.008499 0.001804 0.000000 0.000000 -1.000000 0.125000 0.500000 204 156 95 255
0.158521 0.008499 0.001804 0.000000 0.000000 -1.000000 0.375000 0.500000 204 155 93 255
0.158521 -0.056448 0.001804 0.000000 0.000000 -1.000000 0.375000 0.750000 204 156 95 255
-0.032984 -0.056448 0.001804 0.000000 0.000000 -1.000000 0.125000 0.750000 204 156 95 255
0.158521 0.008499 0.002878 0.000000 -0.000000 1.000000 0.625000 0.500000 204 155 93 255
-0.032984 0.008499 0.002878 0.000000 -0.000000 1.000000 0.875000 0.500000 204 156 95 255
-0.032984 -0.056448 0.002878 0.000000 -0.000000 1.000000 0.875000 0.750000 204 156 95 255
0.158521 -0.056448 0.002878 0.000000 -0.000000 1.000000 0.625000 0.750000 204 156 95 255
4 0 1 2 3
4 4 5 6 7
4 8 9 10 11
4 12 13 14 15
4 16 17 18 19
4 20 21 22 23
4 24 25 26 27
4 28 29 30 31
4 32 33 34 35
4 36 37 38 39
4 40 41 42 43
4 44 45 46 47
