ply
format ascii 1.0
comment Created by Blender 3.0.1 - www.blender.org
element vertex 96
property float x
property float y
property float z
property float nx
property float ny
property float nz
property float s
property float t
property uchar red
property uchar green
property uchar blue
property uchar alpha
element face 24
property list uchar uint vertex_indices
end_header
0.051701 -0.049450 0.000069 -1.000000 -0.000000 0.000000 0.375000 0.000000 4 99 7 255
0.051701 -0.049450 0.002933 -1.000000 -0.000000 0.000000 0.625000 0.000000 4 99 7 255
0.051701 0.025967 0.002933 -1.000000 -0.000000 0.000000 0.625000 0.250000 4 99 7 255
0.051701 0.025967 0.000069 -1.000000 -0.000000 0.000000 0.375000 0.250000 4 99 7 255
0.051701 0.025967 0.000069 0.000000 1.000000 0.000000 0.375000 0.250000 4 99 7 255
0.051701 0.025967 0.002933 0.000000 1.000000 0.000000 0.625000 0.250000 4 99 7 255
0.079989 0.025967 0.002933 0.000000 1.000000 0.000000 0.625000 0.500000 8 99 10 255
0.079989 0.025967 0.000069 0.000000 1.000000 0.000000 0.375000 0.500000 7 99 9 255
0.079989 0.025967 0.000069 1.000000 -0.000000 0.000000 0.375000 0.500000 7 99 9 255
0.079989 0.025967 0.002933 1.000000 -0.000000 0.000000 0.625000 0.500000 8 99 10 255
0.079989 -0.049450 0.002933 1.000000 -0.000000 0.000000 0.625000 0.750000 4 99 7 255
0.079989 -0.049450 0.000069 1.000000 -0.000000 0.000000 0.375000 0.750000 12 100 13 255
0.079989 -0.049450 0.000069 0.000000 -1.000000 0.000000 0.375000 0.750000 12 100 13 255
0.079989 -0.049450 0.002933 0.000000 -1.000000 0.000000 0.625000 0.750000 4 99 7 255
0.051701 -0.049450 0.002933 0.000000 -1.000000 0.000000 0.625000 1.000000 4 99 7 255
0.051701 -0.049450 0.000069 0.000000 -1.000000 0.000000 0.375000 1.000000 4 99 7 255
0.051701 0.025967 0.000069 0.000000 0.000000 -1.000000 0.125000 0.500000 4 99 7 255
0.079989 0.025967 0.000069 0.000000 0.000000 -1.000000 0.375000 0.500000 7 99 9 255
0.079989 -0.049450 0.000069 0.000000 0.000000 -1.000000 0.375000 0.750000 12 100 13 255
0.051701 -0.049450 0.000069 0.000000 0.000000 -1.000000 0.125000 0.750000 4 99 7 255
0.079989 0.025967 0.002933 0.000000 -0.000000 1.000000 0.625000 0.500000 8 99 10 255
0.051701 0.025967 0.002933 0.000000 -0.000000 1.000000 0.875000 0.500000 4 99 7 255
0.051701 -0.049450 0.002933 0.000000 -0.000000 1.000000 0.875000 0.750000 4 99 7 255
0.079989 -0.049450 0.002933 0.000000 -0.000000 1.000000 0.625000 0.750000 4 99 7 255
-0.051361 -0.049493 0.000000 -1.000000 -0.000000 0.000000 0.375000 0.000000 5 99 8 255
-0.051361 -0.049493 0.002840 -1.000000 -0.000000 0.000000 0.625000 0.000000 4 99 7 255
-0.051361 0.089822 0.002840 -1.000000 -0.000000 0.000000 0.625000 0.250000 4 99 7 255
-0.051361 0.089822 0.000000 -1.000000 -0.000000 0.000000 0.375000 0.250000 6 99 8 255
-0.051361 0.089822 0.000000 0.000000 1.000000 0.000000 0.375000 0.250000 6 99 8 255
-0.051361 0.089822 0.002840 0.000000 1.000000 0.000000 0.625000 0.250000 4 99 7 255
0.051631 0.089822 0.002840 0.000000 1.000000 0.000000 0.625000 0.500000 4 99 7 255
0.051631 0.089822 0.000000 0.000000 1.000000 0.000000 0.375000 0.500000 4 99 7 255
0.051631 0.089822 0.000000 1.000000 -0.000000 0.000000 0.375000 0.500000 4 99 7 255
0.051631 0.089822 0.002840 1.000000 -0.000000 0.000000 0.625000 0.500000 4 99 7 255
0.051631 -0.049493 0.002840 1.000000 -0.000000 0.000000 0.625000 0.750000 4 99 7 255
0.051631 -0.049493 0.000000 1.000000 -0.000000 0.000000 0.375000 0.750000 4 99 7 255
0.051631 -0.049493 0.000000 0.000000 -1.000000 0.000000 0.375000 0.750000 4 99 7 255
0.051631 -0.049493 0.002840 0.000000 -1.000000 0.000000 0.625000 0.750000 4 99 7 255
-0.051361 -0.049493 0.002840 0.000000 -1.000000 0.000000 0.625000 1.000000 4 99 7 255
-0.051361 -0.049493 0.000000 0.000000 -1.000000 0.000000 0.375000 1.000000 5 99 8 255
-0.051361 0.089822 0.000000 0.000000 0.000000 -1.000000 0.125000 0.500000 6 99 8 255
0.051631 0.089822 0.000000 0.000000 0.000000 -1.000000 0.375000 0.500000 4 99 7 255
0.051631 -0.049493 0.000000 0.000000 0.000000 -1.000000 0.375000 0.750000 4 99 7 255
-0.051361 -0.049493 0.000000 0.000000 0.000000 -1.000000 0.125000 0.750000 5 99 8 255
0.051631 0.089822 0.002840 0.000000 -0.000000 1.000000 0.625000 0.500000 4 99 7 255
-0.051361 0.089822 0.002840 0.000000 -0.000000 1.000000 0.875000 0.500000 4 99 7 255
-0.051361 -0.049493 0.002840 0.000000 -0.000000 1.000000 0.875000 0.750000 4 99 7 255
0.051631 -0.049493 0.002840 0.000000 -0.000000 1.000000 0.625000 0.750000 4 99 7 255
0.049269 -0.047874 0.002987 -1.000000 -0.000000 0.000000 0.375000 0.000000 186 140 81 255
0.049269 -0.047874 0.003761 -1.000000 -0.000000 0.000000 0.625000 0.000000 204 156 95 255
0.049269 0.022849 0.003761 -1.000000 -0.000000 0.000000 0.625000 0.250000 204 156 95 255
0.049269 0.022849 0.002987 -1.000000 -0.000000 0.000000 0.375000 0.250000 204 156 95 255
0.049269 0.022849 0.002987 0.000000 1.000000 0.000000 0.375000 0.250000 204 156 95 255
0.049269 0.022849 0.003761 0.000000 1.000000 0.000000 0.625000 0.250000 204 156 95 255
0.075996 0.022849 0.003761 0.000000 1.000000 0.000000 0.625000 0.500000 204 156 95 255
0.075996 0.022849 0.002987 0.000000 1.000000 0.000000 0.375000 0.500000 204 156 95 255
0.075996 0.022849 0.002987 1.000000 -0.000000 0.000000 0.375000 0.500000 204 156 95 255
0.075996 0.022849 0.003761 1.000000 -0.000000 0.000000 0.625000 0.500000 204 156 95 255
0.075996 -0.047874 0.003761 1.000000 -0.000000 0.000000 0.625000 0.750000 204 156 95 255
0.075996 -0.047874 0.002987 1.000000 -0.000000 0.000000 0.375000 0.750000 204 156 95 255
0.075996 -0.047874 0.002987 0.000000 -1.000000 0.000000 0.375000 0.750000 204 156 95 255
0.075996 -0.047874 0.003761 0.000000 -1.000000 0.000000 0.625000 0.750000 204 156 95 255
0.049269 -0.047874 0.003761 0.000000 -1.000000 0.000000 0.625000 1.000000 204 156 95 255
0.049269 -0.047874 0.002987 0.000000 -1.000000 0.000000 0.375000 1.000000 186 140 81 255
0.049269 0.022849 0.002987 0.000000 0.000000 -1.000000 0.125000 0.500000 204 156 95 255
0.075996 0.022849 0.002987 0.000000 0.000000 -1.000000 0.375000 0.500000 204 156 95 255
0.075996 -0.047874 0.002987 0.000000 0.000000 -1.000000 0.375000 0.750000 204 156 95 255
0.049269 -0.047874 0.002987 0.000000 0.000000 -1.000000 0.125000 0.750000 186 140 81 255
0.075996 0.022849 0.003761 0.000000 -0.000000 1.000000 0.625000 0.500000 204 156 95 255
0.049269 0.022849 0.003761 0.000000 -0.000000 1.000000 0.875000 0.500000 204 156 95 255
0.049269 -0.047874 0.003761 0.000000 -0.000000 1.000000 0.875000 0.750000 204 156 95 255
0.075996 -0.047874 0.003761 0.000000 -0.000000 1.000000 0.625000 0.750000 204 156 95 255
-0.048107 -0.047915 0.002968 -1.000000 -0.000000 0.000000 0.375000 0.000000 204 156 95 255
-0.048107 -0.047915 0.003736 -1.000000 -0.000000 0.000000 0.625000 0.000000 204 156 95 255
-0.048107 0.082731 0.003736 -1.000000 -0.000000 0.000000 0.625000 0.250000 204 156 95 255
-0.048107 0.082731 0.002968 -1.000000 -0.000000 0.000000 0.375000 0.250000 204 156 95 255
-0.048107 0.082731 0.002968 0.000000 1.000000 0.000000 0.375000 0.250000 204 156 95 255
-0.048107 0.082731 0.003736 0.000000 1.000000 0.000000 0.625000 0.250000 204 156 95 255
0.049203 0.082731 0.003736 0.000000 1.000000 0.000000 0.625000 0.500000 204 156 95 255
0.049203 0.082731 0.002968 0.000000 1.000000 0.000000 0.375000 0.500000 204 156 95 255
0.049203 0.082731 0.002968 1.000000 -0.000000 0.000000 0.375000 0.500000 204 156 95 255
0.049203 0.082731 0.003736 1.000000 -0.000000 0.000000 0.625000 0.500000 204 156 95 255
0.049203 -0.047915 0.003736 1.000000 -0.000000 0.000000 0.625000 0.750000 204 156 95 255
0.049203 -0.047915 0.002968 1.000000 -0.000000 0.000000 0.375000 0.750000 204 156 95 255
0.049203 -0.047915 0.002968 0.000000 -1.000000 0.000000 0.375000 0.750000 204 156 95 255
0.049203 -0.047915 0.003736 0.000000 -1.000000 0.000000 0.625000 0.750000 204 156 95 255
-0.048107 -0.047915 0.003736 0.000000 -1.000000 0.000000 0.625000 1.000000 204 156 95 255
-0.048107 -0.047915 0.002968 0.000000 -1.000000 0.000000 0.375000 1.000000 204 156 95 255
-0.048107 0.082731 0.002968 0.000000 0.000000 -1.000000 0.125000 0.500000 204 156 95 255
0.049203 0.082731 0.002968 0.000000 0.000000 -1.000000 0.375000 0.500000 204 156 95 255
0.049203 -0.047915 0.002968 0.000000 0.000000 -1.000000 0.375000 0.750000 204 156 95 255
-0.048107 -0.047915 0.002968 0.000000 0.000000 -1.000000 0.125000 0.750000 204 156 95 255
0.049203 0.082731 0.003736 0.000000 -0.000000 1.000000 0.625000 0.500000 204 156 95 255
-0.048107 0.082731 0.003736 0.000000 -0.000000 1.000000 0.875000 0.500000 204 156 95 255
-0.048107 -0.047915 0.003736 0.000000 -0.000000 1.000000 0.875000 0.750000 204 156 95 255
0.049203 -0.047915 0.003736 0.000000 -0.000000 1.000000 0.625000 0.750000 204 156 95 255
4 0 1 2 3
4 4 5 6 7
4 8 9 10 11
4 12 13 14 15
4 16 17 18 19
4 20 21 22 23
4 24 25 26 27
4 28 29 30 31
4 32 33 34 35
4 36 37 38 39
4 40 41 42 43
4 44 45 46 47
4 48 49 50 51
4 52 53 54 55
4 56 57 58 59
4 60 61 62 63
4 64 65 66 67
4 68 69 70 71
4 72 73 74 75
4 76 77 78 79
4 80 81 82 83
4 84 85 86 87
4 88 89 90 91
4 92 93 94 95
