ply
format ascii 1.0
comment Created by Blender 3.0.1 - www.blender.org
element vertex 384
property float x
property float y
property float z
property float nx
property float ny
property float nz
property float s
property float t
property uchar red
property uchar green
property uchar blue
property uchar alpha
element face 68
property list uchar uint vertex_indices
end_header
-0.000000 0.085013 0.000935 0.098017 0.995185 0.000000 1.000000 0.500000 204 156 95 255
-0.000000 0.085013 0.003135 0.098017 0.995185 0.000000 1.000000 1.000000 204 156 95 255
0.016585 0.083380 0.003135 0.098017 0.995185 0.000000 0.968750 1.000000 204 156 95 255
0.016585 0.083380 0.000935 0.098017 0.995185 0.000000 0.968750 0.500000 204 156 95 255
0.016585 0.083380 0.000935 0.290285 0.956940 0.000000 0.968750 0.500000 204 156 95 255
0.016585 0.083380 0.003135 0.290285 0.956940 0.000000 0.968750 1.000000 204 156 95 255
0.032533 0.078542 0.003135 0.290285 0.956940 0.000000 0.937500 1.000000 204 156 95 255
0.032533 0.078542 0.000935 0.290285 0.956940 0.000000 0.937500 0.500000 204 156 95 255
0.032533 0.078542 0.000935 0.471397 0.881921 0.000000 0.937500 0.500000 204 156 95 255
0.032533 0.078542 0.003135 0.471397 0.881921 0.000000 0.937500 1.000000 204 156 95 255
0.047231 0.070686 0.003135 0.471397 0.881921 0.000000 0.906250 1.000000 204 156 95 255
0.047231 0.070686 0.000935 0.471397 0.881921 0.000000 0.906250 0.500000 204 156 95 255
0.047231 0.070686 0.000935 0.634394 0.773010 0.000000 0.906250 0.500000 204 156 95 255
0.047231 0.070686 0.003135 0.634394 0.773010 0.000000 0.906250 1.000000 204 156 95 255
0.060113 0.060113 0.003135 0.634394 0.773010 0.000000 0.875000 1.000000 204 156 95 255
0.060113 0.060113 0.000935 0.634394 0.773010 0.000000 0.875000 0.500000 204 156 95 255
0.060113 0.060113 0.000935 0.773010 0.634393 0.000000 0.875000 0.500000 204 156 95 255
0.060113 0.060113 0.003135 0.773010 0.634393 0.000000 0.875000 1.000000 204 156 95 255
0.070686 0.047231 0.003135 0.773010 0.634393 0.000000 0.843750 1.000000 204 156 95 255
0.070686 0.047231 0.000935 0.773010 0.634393 0.000000 0.843750 0.500000 204 156 95 255
0.070686 0.047231 0.000935 0.881921 0.471397 0.000000 0.843750 0.500000 204 156 95 255
0.070686 0.047231 0.003135 0.881921 0.471397 0.000000 0.843750 1.000000 204 156 95 255
0.078542 0.032533 0.003135 0.881921 0.471397 0.000000 0.812500 1.000000 204 156 95 255
0.078542 0.032533 0.000935 0.881921 0.471397 0.000000 0.812500 0.500000 204 156 95 255
0.078542 0.032533 0.000935 0.956940 0.290284 0.000000 0.812500 0.500000 204 156 95 255
0.078542 0.032533 0.003135 0.956940 0.290284 0.000000 0.812500 1.000000 204 156 95 255
0.083379 0.016585 0.003135 0.956940 0.290284 0.000000 0.781250 1.000000 204 156 95 255
0.083379 0.016585 0.000935 0.956940 0.290284 0.000000 0.781250 0.500000 204 156 96 255
0.083379 0.016585 0.000935 0.995185 0.098018 0.000000 0.781250 0.500000 204 156 96 255
0.083379 0.016585 0.003135 0.995185 0.098018 0.000000 0.781250 1.000000 204 156 95 255
0.085013 -0.000000 0.003135 0.995185 0.098018 0.000000 0.750000 1.000000 204 156 95 255
0.085013 -0.000000 0.000935 0.995185 0.098018 0.000000 0.750000 0.500000 204 156 95 255
0.085013 -0.000000 0.000935 0.995185 -0.098018 0.000000 0.750000 0.500000 204 156 95 255
0.085013 -0.000000 0.003135 0.995185 -0.098018 0.000000 0.750000 1.000000 204 156 95 255
0.083379 -0.016585 0.003135 0.995185 -0.098018 0.000000 0.718750 1.000000 204 156 95 255
0.083379 -0.016585 0.000935 0.995185 -0.098018 0.000000 0.718750 0.500000 204 156 95 255
0.083379 -0.016585 0.000935 0.956940 -0.290284 0.000000 0.718750 0.500000 204 156 95 255
0.083379 -0.016585 0.003135 0.956940 -0.290284 0.000000 0.718750 1.000000 204 156 95 255
0.078542 -0.032533 0.003135 0.956940 -0.290284 0.000000 0.687500 1.000000 204 156 95 255
0.078542 -0.032533 0.000935 0.956940 -0.290284 0.000000 0.687500 0.500000 204 156 95 255
0.078542 -0.032533 0.000935 0.881921 -0.471397 0.000000 0.687500 0.500000 204 156 95 255
0.078542 -0.032533 0.003135 0.881921 -0.471397 0.000000 0.687500 1.000000 204 156 95 255
0.070686 -0.047231 0.003135 0.881921 -0.471397 0.000000 0.656250 1.000000 205 157 96 255
0.070686 -0.047231 0.000935 0.881921 -0.471397 0.000000 0.656250 0.500000 205 157 96 255
0.070686 -0.047231 0.000935 0.773010 -0.634393 0.000000 0.656250 0.500000 205 157 96 255
0.070686 -0.047231 0.003135 0.773010 -0.634393 0.000000 0.656250 1.000000 205 157 96 255
0.060113 -0.060113 0.003135 0.773010 -0.634393 0.000000 0.625000 1.000000 204 156 95 255
0.060113 -0.060113 0.000935 0.773010 -0.634393 0.000000 0.625000 0.500000 204 156 95 255
0.060113 -0.060113 0.000935 0.634393 -0.773010 0.000000 0.625000 0.500000 204 156 95 255
0.060113 -0.060113 0.003135 0.634393 -0.773010 0.000000 0.625000 1.000000 204 156 95 255
0.047231 -0.070686 0.003135 0.634393 -0.773010 0.000000 0.593750 1.000000 204 156 95 255
0.047231 -0.070686 0.000935 0.634393 -0.773010 0.000000 0.593750 0.500000 204 156 95 255
0.047231 -0.070686 0.000935 0.471397 -0.881921 0.000000 0.593750 0.500000 204 156 95 255
0.047231 -0.070686 0.003135 0.471397 -0.881921 0.000000 0.593750 1.000000 204 156 95 255
0.032533 -0.078542 0.003135 0.471397 -0.881921 0.000000 0.562500 1.000000 204 156 95 255
0.032533 -0.078542 0.000935 0.471397 -0.881921 0.000000 0.562500 0.500000 204 156 95 255
0.032533 -0.078542 0.000935 0.290284 -0.956940 0.000000 0.562500 0.500000 204 156 95 255
0.032533 -0.078542 0.003135 0.290284 -0.956940 0.000000 0.562500 1.000000 204 156 95 255
0.016585 -0.083380 0.003135 0.290284 -0.956940 0.000000 0.531250 1.000000 204 156 95 255
0.016585 -0.083380 0.000935 0.290284 -0.956940 0.000000 0.531250 0.500000 204 156 95 255
0.016585 -0.083380 0.000935 0.098017 -0.995185 0.000000 0.531250 0.500000 204 156 95 255
0.016585 -0.083380 0.003135 0.098017 -0.995185 0.000000 0.531250 1.000000 204 156 95 255
-0.000000 -0.085013 0.003135 0.098017 -0.995185 0.000000 0.500000 1.000000 204 156 95 255
-0.000000 -0.085013 0.000935 0.098017 -0.995185 0.000000 0.500000 0.500000 204 156 95 255
-0.000000 -0.085013 0.000935 -0.098017 -0.995185 0.000000 0.500000 0.500000 204 156 95 255
-0.000000 -0.085013 0.003135 -0.098017 -0.995185 0.000000 0.500000 1.000000 204 156 95 255
-0.016585 -0.083380 0.003135 -0.098017 -0.995185 0.000000 0.468750 1.000000 204 156 95 255
-0.016585 -0.083380 0.000935 -0.098017 -0.995185 0.000000 0.468750 0.500000 204 156 95 255
-0.016585 -0.083380 0.000935 -0.290284 -0.956940 0.000000 0.468750 0.500000 204 156 95 255
-0.016585 -0.083380 0.003135 -0.290284 -0.956940 0.000000 0.468750 1.000000 204 156 95 255
-0.032533 -0.078542 0.003135 -0.290284 -0.956940 0.000000 0.437500 1.000000 204 156 95 255
-0.032533 -0.078542 0.000935 -0.290284 -0.956940 0.000000 0.437500 0.500000 204 156 95 255
-0.032533 -0.078542 0.000935 -0.471398 -0.881921 0.000000 0.437500 0.500000 204 156 95 255
-0.032533 -0.078542 0.003135 -0.471398 -0.881921 0.000000 0.437500 1.000000 204 156 95 255
-0.047231 -0.070686 0.003135 -0.471398 -0.881921 0.000000 0.406250 1.000000 204 156 95 255
-0.047231 -0.070686 0.000935 -0.471398 -0.881921 0.000000 0.406250 0.500000 204 156 95 255
-0.047231 -0.070686 0.000935 -0.634393 -0.773011 0.000000 0.406250 0.500000 204 156 95 255
-0.047231 -0.070686 0.003135 -0.634393 -0.773011 0.000000 0.406250 1.000000 204 156 95 255
-0.060113 -0.060113 0.003135 -0.634393 -0.773011 0.000000 0.375000 1.000000 204 156 95 255
-0.060113 -0.060113 0.000935 -0.634393 -0.773011 0.000000 0.375000 0.500000 204 156 95 255
-0.060113 -0.060113 0.000935 -0.773010 -0.634394 0.000000 0.375000 0.500000 204 156 95 255
-0.060113 -0.060113 0.003135 -0.773010 -0.634394 0.000000 0.375000 1.000000 204 156 95 255
-0.070686 -0.047231 0.003135 -0.773010 -0.634394 0.000000 0.343750 1.000000 204 156 95 255
-0.070686 -0.047231 0.000935 -0.773010 -0.634394 0.000000 0.343750 0.500000 204 156 95 255
-0.070686 -0.047231 0.000935 -0.881921 -0.471397 0.000000 0.343750 0.500000 204 156 95 255
-0.070686 -0.047231 0.003135 -0.881921 -0.471397 0.000000 0.343750 1.000000 204 156 95 255
-0.078542 -0.032533 0.003135 -0.881921 -0.471397 0.000000 0.312500 1.000000 204 156 95 255
-0.078542 -0.032533 0.000935 -0.881921 -0.471397 0.000000 0.312500 0.500000 204 156 95 255
-0.078542 -0.032533 0.000935 -0.956940 -0.290284 0.000000 0.312500 0.500000 204 156 95 255
-0.078542 -0.032533 0.003135 -0.956940 -0.290284 0.000000 0.312500 1.000000 204 156 95 255
-0.083380 -0.016585 0.003135 -0.956940 -0.290284 0.000000 0.281250 1.000000 204 156 95 255
-0.083380 -0.016585 0.000935 -0.956940 -0.290284 0.000000 0.281250 0.500000 204 156 95 255
-0.083380 -0.016585 0.000935 -0.995185 -0.098017 0.000000 0.281250 0.500000 204 156 95 255
-0.083380 -0.016585 0.003135 -0.995185 -0.098017 0.000000 0.281250 1.000000 204 156 95 255
-0.085013 -0.000000 0.003135 -0.995185 -0.098017 0.000000 0.250000 1.000000 204 156 95 255
-0.085013 -0.000000 0.000935 -0.995185 -0.098017 0.000000 0.250000 0.500000 204 156 95 255
-0.085013 -0.000000 0.000935 -0.995185 0.098017 0.000000 0.250000 0.500000 204 156 95 255
-0.085013 -0.000000 0.003135 -0.995185 0.098017 0.000000 0.250000 1.000000 204 156 95 255
-0.083380 0.016585 0.003135 -0.995185 0.098017 0.000000 0.218750 1.000000 204 156 95 255
-0.083380 0.016585 0.000935 -0.995185 0.098017 0.000000 0.218750 0.500000 204 156 95 255
-0.083380 0.016585 0.000935 -0.956940 0.290285 0.000000 0.218750 0.500000 204 156 95 255
-0.083380 0.016585 0.003135 -0.956940 0.290285 0.000000 0.218750 1.000000 204 156 95 255
-0.078542 0.032533 0.003135 -0.956940 0.290285 0.000000 0.187500 1.000000 204 156 95 255
-0.078542 0.032533 0.000935 -0.956940 0.290285 0.000000 0.187500 0.500000 204 156 95 255
-0.078542 0.032533 0.000935 -0.881921 0.471397 0.000000 0.187500 0.500000 204 156 95 255
-0.078542 0.032533 0.003135 -0.881921 0.471397 0.000000 0.187500 1.000000 204 156 95 255
-0.070686 0.047231 0.003135 -0.881921 0.471397 0.000000 0.156250 1.000000 204 156 95 255
-0.070686 0.047231 0.000935 -0.881921 0.471397 0.000000 0.156250 0.500000 204 156 95 255
-0.070686 0.047231 0.000935 -0.773011 0.634393 0.000000 0.156250 0.500000 204 156 95 255
-0.070686 0.047231 0.003135 -0.773011 0.634393 0.000000 0.156250 1.000000 204 156 95 255
-0.060113 0.060113 0.003135 -0.773011 0.634393 0.000000 0.125000 1.000000 204 156 95 255
-0.060113 0.060113 0.000935 -0.773011 0.634393 0.000000 0.125000 0.500000 204 156 95 255
-0.060113 0.060113 0.000935 -0.634394 0.773010 0.000000 0.125000 0.500000 204 156 95 255
-0.060113 0.060113 0.003135 -0.634394 0.773010 0.000000 0.125000 1.000000 204 156 95 255
-0.047231 0.070686 0.003135 -0.634394 0.773010 0.000000 0.093750 1.000000 204 156 95 255
-0.047231 0.070686 0.000935 -0.634394 0.773010 0.000000 0.093750 0.500000 204 156 95 255
-0.047231 0.070686 0.000935 -0.471396 0.881922 0.000000 0.093750 0.500000 204 156 95 255
-0.047231 0.070686 0.003135 -0.471396 0.881922 0.000000 0.093750 1.000000 204 156 95 255
-0.032533 0.078542 0.003135 -0.471396 0.881922 0.000000 0.062500 1.000000 204 156 95 255
-0.032533 0.078542 0.000935 -0.471396 0.881922 0.000000 0.062500 0.500000 204 156 95 255
0.016585 0.083380 0.003135 0.000000 0.000000 1.000000 0.296822 0.485388 204 156 95 255
-0.000000 0.085013 0.003135 0.000000 0.000000 1.000000 0.250000 0.490000 204 156 95 255
-0.016585 0.083380 0.003135 0.000000 0.000000 1.000000 0.203178 0.485388 204 156 95 255
-0.032533 0.078542 0.003135 0.000000 0.000000 1.000000 0.158156 0.471731 204 156 95 255
-0.047231 0.070686 0.003135 0.000000 0.000000 1.000000 0.116663 0.449553 204 156 95 255
-0.060113 0.060113 0.003135 0.000000 0.000000 1.000000 0.080294 0.419706 204 156 95 255
-0.070686 0.047231 0.003135 0.000000 0.000000 1.000000 0.050447 0.383337 204 156 95 255
-0.078542 0.032533 0.003135 0.000000 0.000000 1.000000 0.028269 0.341844 204 156 95 255
-0.083380 0.016585 0.003135 0.000000 0.000000 1.000000 0.014612 0.296822 204 156 95 255
-0.085013 -0.000000 0.003135 0.000000 0.000000 1.000000 0.010000 0.250000 204 156 95 255
-0.083380 -0.016585 0.003135 0.000000 0.000000 1.000000 0.014612 0.203178 204 156 95 255
-0.078542 -0.032533 0.003135 0.000000 0.000000 1.000000 0.028269 0.158156 204 156 95 255
-0.070686 -0.047231 0.003135 0.000000 0.000000 1.000000 0.050447 0.116663 204 156 95 255
-0.060113 -0.060113 0.003135 0.000000 0.000000 1.000000 0.080294 0.080294 204 156 95 255
-0.047231 -0.070686 0.003135 0.000000 0.000000 1.000000 0.116663 0.050447 204 156 95 255
-0.032533 -0.078542 0.003135 0.000000 0.000000 1.000000 0.158156 0.028269 204 156 95 255
-0.016585 -0.083380 0.003135 0.000000 0.000000 1.000000 0.203178 0.014612 204 156 95 255
-0.000000 -0.085013 0.003135 0.000000 0.000000 1.000000 0.250000 0.010000 204 156 95 255
0.016585 -0.083380 0.003135 0.000000 0.000000 1.000000 0.296822 0.014612 204 156 95 255
0.032533 -0.078542 0.003135 0.000000 0.000000 1.000000 0.341844 0.028269 204 156 95 255
0.047231 -0.070686 0.003135 0.000000 0.000000 1.000000 0.383337 0.050447 204 156 95 255
0.060113 -0.060113 0.003135 0.000000 0.000000 1.000000 0.419706 0.080294 204 156 95 255
0.070686 -0.047231 0.003135 0.000000 0.000000 1.000000 0.449553 0.116663 205 157 96 255
0.078542 -0.032533 0.003135 0.000000 0.000000 1.000000 0.471731 0.158156 204 156 95 255
0.083379 -0.016585 0.003135 0.000000 0.000000 1.000000 0.485388 0.203178 204 156 95 255
0.085013 -0.000000 0.003135 0.000000 0.000000 1.000000 0.490000 0.250000 204 156 95 255
0.083379 0.016585 0.003135 0.000000 0.000000 1.000000 0.485388 0.296822 204 156 95 255
0.078542 0.032533 0.003135 0.000000 0.000000 1.000000 0.471731 0.341844 204 156 95 255
0.070686 0.047231 0.003135 0.000000 0.000000 1.000000 0.449553 0.383337 204 156 95 255
0.060113 0.060113 0.003135 0.000000 0.000000 1.000000 0.419706 0.419706 204 156 95 255
0.047231 0.070686 0.003135 0.000000 0.000000 1.000000 0.383337 0.449553 204 156 95 255
0.032533 0.078542 0.003135 0.000000 0.000000 1.000000 0.341844 0.471731 204 156 95 255
-0.032533 0.078542 0.000935 -0.290285 0.956940 0.000000 0.062500 0.500000 204 156 95 255
-0.032533 0.078542 0.003135 -0.290285 0.956940 0.000000 0.062500 1.000000 204 156 95 255
-0.016585 0.083380 0.003135 -0.290285 0.956940 0.000000 0.031250 1.000000 204 156 95 255
-0.016585 0.083380 0.000935 -0.290285 0.956940 0.000000 0.031250 0.500000 204 156 95 255
-0.016585 0.083380 0.000935 -0.098017 0.995185 0.000000 0.031250 0.500000 204 156 95 255
-0.016585 0.083380 0.003135 -0.098017 0.995185 0.000000 0.031250 1.000000 204 156 95 255
-0.000000 0.085013 0.003135 -0.098017 0.995185 0.000000 0.000000 1.000000 204 156 95 255
-0.000000 0.085013 0.000935 -0.098017 0.995185 0.000000 0.000000 0.500000 204 156 95 255
-0.000000 0.085013 0.000935 -0.000000 0.000000 -1.000000 0.750000 0.490000 204 156 95 255
0.016585 0.083380 0.000935 -0.000000 0.000000 -1.000000 0.796822 0.485388 204 156 95 255
0.032533 0.078542 0.000935 -0.000000 0.000000 -1.000000 0.841844 0.471731 204 156 95 255
0.047231 0.070686 0.000935 -0.000000 0.000000 -1.000000 0.883337 0.449553 204 156 95 255
0.060113 0.060113 0.000935 -0.000000 0.000000 -1.000000 0.919706 0.419706 204 156 95 255
0.070686 0.047231 0.000935 -0.000000 0.000000 -1.000000 0.949553 0.383337 204 156 95 255
0.078542 0.032533 0.000935 -0.000000 0.000000 -1.000000 0.971731 0.341844 204 156 95 255
0.083379 0.016585 0.000935 -0.000000 0.000000 -1.000000 0.985388 0.296822 204 156 96 255
0.085013 -0.000000 0.000935 -0.000000 0.000000 -1.000000 0.990000 0.250000 204 156 95 255
0.083379 -0.016585 0.000935 -0.000000 0.000000 -1.000000 0.985388 0.203178 204 156 95 255
0.078542 -0.032533 0.000935 -0.000000 0.000000 -1.000000 0.971731 0.158156 204 156 95 255
0.070686 -0.047231 0.000935 -0.000000 0.000000 -1.000000 0.949553 0.116663 205 157 96 255
0.060113 -0.060113 0.000935 -0.000000 0.000000 -1.000000 0.919706 0.080294 204 156 95 255
0.047231 -0.070686 0.000935 -0.000000 0.000000 -1.000000 0.883337 0.050447 204 156 95 255
0.032533 -0.078542 0.000935 -0.000000 0.000000 -1.000000 0.841844 0.028269 204 156 95 255
0.016585 -0.083380 0.000935 -0.000000 0.000000 -1.000000 0.796822 0.014612 204 156 95 255
-0.000000 -0.085013 0.000935 -0.000000 0.000000 -1.000000 0.750000 0.010000 204 156 95 255
-0.016585 -0.083380 0.000935 -0.000000 0.000000 -1.000000 0.703178 0.014612 204 156 95 255
-0.032533 -0.078542 0.000935 -0.000000 0.000000 -1.000000 0.658156 0.028269 204 156 95 255
-0.047231 -0.070686 0.000935 -0.000000 0.000000 -1.000000 0.616663 0.050447 204 156 95 255
-0.060113 -0.060113 0.000935 -0.000000 0.000000 -1.000000 0.580294 0.080294 204 156 95 255
-0.070686 -0.047231 0.000935 -0.000000 0.000000 -1.000000 0.550447 0.116663 204 156 95 255
-0.078542 -0.032533 0.000935 -0.000000 0.000000 -1.000000 0.528269 0.158156 204 156 95 255
-0.083380 -0.016585 0.000935 -0.000000 0.000000 -1.000000 0.514612 0.203178 204 156 95 255
-0.085013 -0.000000 0.000935 -0.000000 0.000000 -1.000000 0.510000 0.250000 204 156 95 255
-0.083380 0.016585 0.000935 -0.000000 0.000000 -1.000000 0.514612 0.296822 204 156 95 255
-0.078542 0.032533 0.000935 -0.000000 0.000000 -1.000000 0.528269 0.341844 204 156 95 255
-0.070686 0.047231 0.000935 -0.000000 0.000000 -1.000000 0.550447 0.383337 204 156 95 255
-0.060113 0.060113 0.000935 -0.000000 0.000000 -1.000000 0.580294 0.419706 204 156 95 255
-0.047231 0.070686 0.000935 -0.000000 0.000000 -1.000000 0.616663 0.449553 204 156 95 255
-0.032533 0.078542 0.000935 -0.000000 0.000000 -1.000000 0.658156 0.471731 204 156 95 255
-0.016585 0.083380 0.000935 -0.000000 0.000000 -1.000000 0.703178 0.485388 204 156 95 255
-0.000000 0.092481 -0.001585 0.098017 0.995185 0.000000 1.000000 0.500000 4 99 7 255
-0.000000 0.092481 0.001585 0.098017 0.995185 0.000000 1.000000 1.000000 4 99 7 255
0.018042 0.090704 0.001585 0.098017 0.995185 0.000000 0.968750 1.000000 4 99 7 255
0.018042 0.090704 -0.001585 0.098017 0.995185 0.000000 0.968750 0.500000 4 99 7 255
0.018042 0.090704 -0.001585 0.290285 0.956940 0.000000 0.968750 0.500000 4 99 7 255
0.018042 0.090704 0.001585 0.290285 0.956940 0.000000 0.968750 1.000000 4 99 7 255
0.035391 0.085442 0.001585 0.290285 0.956940 0.000000 0.937500 1.000000 7 99 9 255
0.035391 0.085442 -0.001585 0.290285 0.956940 0.000000 0.937500 0.500000 8 99 10 255
0.035391 0.085442 -0.001585 0.471397 0.881921 0.000000 0.937500 0.500000 8 99 10 255
0.035391 0.085442 0.001585 0.471397 0.881921 0.000000 0.937500 1.000000 7 99 9 255
0.051380 0.076895 0.001585 0.471397 0.881921 0.000000 0.906250 1.000000 4 99 7 255
0.051380 0.076895 -0.001585 0.471397 0.881921 0.000000 0.906250 0.500000 6 99 8 255
0.051380 0.076895 -0.001585 0.634393 0.773010 0.000000 0.906250 0.500000 6 99 8 255
0.051380 0.076895 0.001585 0.634393 0.773010 0.000000 0.906250 1.000000 4 99 7 255
0.065394 0.065394 0.001585 0.634393 0.773010 0.000000 0.875000 1.000000 5 99 8 255
0.065394 0.065394 -0.001585 0.634393 0.773010 0.000000 0.875000 0.500000 6 99 8 255
0.065394 0.065394 -0.001585 0.773010 0.634393 0.000000 0.875000 0.500000 6 99 8 255
0.065394 0.065394 0.001585 0.773010 0.634393 0.000000 0.875000 1.000000 5 99 8 255
0.076895 0.051380 0.001585 0.773010 0.634393 0.000000 0.843750 1.000000 4 99 7 255
0.076895 0.051380 -0.001585 0.773010 0.634393 0.000000 0.843750 0.500000 5 99 7 255
0.076895 0.051380 -0.001585 0.881921 0.471397 0.000000 0.843750 0.500000 5 99 7 255
0.076895 0.051380 0.001585 0.881921 0.471397 0.000000 0.843750 1.000000 4 99 7 255
0.085442 0.035391 0.001585 0.881921 0.471397 0.000000 0.812500 1.000000 4 99 7 255
0.085442 0.035391 -0.001585 0.881921 0.471397 0.000000 0.812500 0.500000 4 99 7 255
0.085442 0.035391 -0.001585 0.956940 0.290285 0.000000 0.812500 0.500000 4 99 7 255
0.085442 0.035391 0.001585 0.956940 0.290285 0.000000 0.812500 1.000000 4 99 7 255
0.090704 0.018042 0.001585 0.956940 0.290285 0.000000 0.781250 1.000000 4 99 7 255
0.090704 0.018042 -0.001585 0.956940 0.290285 0.000000 0.781250 0.500000 4 99 7 255
0.090704 0.018042 -0.001585 0.995185 0.098017 0.000000 0.781250 0.500000 4 99 7 255
0.090704 0.018042 0.001585 0.995185 0.098017 0.000000 0.781250 1.000000 4 99 7 255
0.092481 -0.000000 0.001585 0.995185 0.098017 0.000000 0.750000 1.000000 5 99 7 255
0.092481 -0.000000 -0.001585 0.995185 0.098017 0.000000 0.750000 0.500000 5 99 8 255
0.092481 -0.000000 -0.001585 0.995185 -0.098017 0.000000 0.750000 0.500000 5 99 8 255
0.092481 -0.000000 0.001585 0.995185 -0.098017 0.000000 0.750000 1.000000 5 99 7 255
0.090704 -0.018042 0.001585 0.995185 -0.098017 0.000000 0.718750 1.000000 5 99 7 255
0.090704 -0.018042 -0.001585 0.995185 -0.098017 0.000000 0.718750 0.500000 5 99 8 255
0.090704 -0.018042 -0.001585 0.956940 -0.290285 0.000000 0.718750 0.500000 5 99 8 255
0.090704 -0.018042 0.001585 0.956940 -0.290285 0.000000 0.718750 1.000000 5 99 7 255
0.085442 -0.035391 0.001585 0.956940 -0.290285 0.000000 0.687500 1.000000 4 99 7 255
0.085442 -0.035391 -0.001585 0.956940 -0.290285 0.000000 0.687500 0.500000 4 99 7 255
0.085442 -0.035391 -0.001585 0.881921 -0.471397 0.000000 0.687500 0.500000 4 99 7 255
0.085442 -0.035391 0.001585 0.881921 -0.471397 0.000000 0.687500 1.000000 4 99 7 255
0.076895 -0.051380 0.001585 0.881921 -0.471397 0.000000 0.656250 1.000000 4 99 7 255
0.076895 -0.051380 -0.001585 0.881921 -0.471397 0.000000 0.656250 0.500000 4 99 7 255
0.076895 -0.051380 -0.001585 0.773010 -0.634393 0.000000 0.656250 0.500000 4 99 7 255
0.076895 -0.051380 0.001585 0.773010 -0.634393 0.000000 0.656250 1.000000 4 99 7 255
0.065394 -0.065394 0.001585 0.773010 -0.634393 0.000000 0.625000 1.000000 4 99 7 255
0.065394 -0.065394 -0.001585 0.773010 -0.634393 0.000000 0.625000 0.500000 4 99 7 255
0.065394 -0.065394 -0.001585 0.634393 -0.773010 0.000000 0.625000 0.500000 4 99 7 255
0.065394 -0.065394 0.001585 0.634393 -0.773010 0.000000 0.625000 1.000000 4 99 7 255
0.051380 -0.076895 0.001585 0.634393 -0.773010 0.000000 0.593750 1.000000 4 99 7 255
0.051380 -0.076895 -0.001585 0.634393 -0.773010 0.000000 0.593750 0.500000 4 99 7 255
0.051380 -0.076895 -0.001585 0.471397 -0.881921 0.000000 0.593750 0.500000 4 99 7 255
0.051380 -0.076895 0.001585 0.471397 -0.881921 0.000000 0.593750 1.000000 4 99 7 255
0.035391 -0.085442 0.001585 0.471397 -0.881921 0.000000 0.562500 1.000000 4 99 7 255
0.035391 -0.085442 -0.001585 0.471397 -0.881921 0.000000 0.562500 0.500000 4 99 7 255
0.035391 -0.085442 -0.001585 0.290284 -0.956941 0.000000 0.562500 0.500000 4 99 7 255
0.035391 -0.085442 0.001585 0.290284 -0.956941 0.000000 0.562500 1.000000 4 99 7 255
0.018042 -0.090704 0.001585 0.290284 -0.956941 0.000000 0.531250 1.000000 4 99 7 255
0.018042 -0.090704 -0.001585 0.290284 -0.956941 0.000000 0.531250 0.500000 4 99 7 255
0.018042 -0.090704 -0.001585 0.098017 -0.995185 0.000000 0.531250 0.500000 4 99 7 255
0.018042 -0.090704 0.001585 0.098017 -0.995185 0.000000 0.531250 1.000000 4 99 7 255
-0.000000 -0.092481 0.001585 0.098017 -0.995185 0.000000 0.500000 1.000000 4 99 7 255
-0.000000 -0.092481 -0.001585 0.098017 -0.995185 0.000000 0.500000 0.500000 4 99 7 255
-0.000000 -0.092481 -0.001585 -0.098018 -0.995185 0.000000 0.500000 0.500000 4 99 7 255
-0.000000 -0.092481 0.001585 -0.098018 -0.995185 0.000000 0.500000 1.000000 4 99 7 255
-0.018042 -0.090704 0.001585 -0.098018 -0.995185 0.000000 0.468750 1.000000 5 99 8 255
-0.018042 -0.090704 -0.001585 -0.098018 -0.995185 0.000000 0.468750 0.500000 6 99 8 255
-0.018042 -0.090704 -0.001585 -0.290284 -0.956941 0.000000 0.468750 0.500000 6 99 8 255
-0.018042 -0.090704 0.001585 -0.290284 -0.956941 0.000000 0.468750 1.000000 5 99 8 255
-0.035391 -0.085442 0.001585 -0.290284 -0.956941 0.000000 0.437500 1.000000 5 99 8 255
-0.035391 -0.085442 -0.001585 -0.290284 -0.956941 0.000000 0.437500 0.500000 5 99 8 255
-0.035391 -0.085442 -0.001585 -0.471397 -0.881921 0.000000 0.437500 0.500000 5 99 8 255
-0.035391 -0.085442 0.001585 -0.471397 -0.881921 0.000000 0.437500 1.000000 5 99 8 255
-0.051380 -0.076895 0.001585 -0.471397 -0.881921 0.000000 0.406250 1.000000 5 99 7 255
-0.051380 -0.076895 -0.001585 -0.471397 -0.881921 0.000000 0.406250 0.500000 5 99 8 255
-0.051380 -0.076895 -0.001585 -0.634393 -0.773010 0.000000 0.406250 0.500000 5 99 8 255
-0.051380 -0.076895 0.001585 -0.634393 -0.773010 0.000000 0.406250 1.000000 5 99 7 255
-0.065394 -0.065394 0.001585 -0.634393 -0.773010 0.000000 0.375000 1.000000 5 99 8 255
-0.065394 -0.065394 -0.001585 -0.634393 -0.773010 0.000000 0.375000 0.500000 6 99 9 255
-0.065394 -0.065394 -0.001585 -0.773010 -0.634394 0.000000 0.375000 0.500000 6 99 9 255
-0.065394 -0.065394 0.001585 -0.773010 -0.634394 0.000000 0.375000 1.000000 5 99 8 255
-0.076895 -0.051380 0.001585 -0.773010 -0.634394 0.000000 0.343750 1.000000 4 99 7 255
-0.076895 -0.051380 -0.001585 -0.773010 -0.634394 0.000000 0.343750 0.500000 5 99 7 255
-0.076895 -0.051380 -0.001585 -0.881921 -0.471397 0.000000 0.343750 0.500000 5 99 7 255
-0.076895 -0.051380 0.001585 -0.881921 -0.471397 0.000000 0.343750 1.000000 4 99 7 255
-0.085442 -0.035391 0.001585 -0.881921 -0.471397 0.000000 0.312500 1.000000 4 99 7 255
-0.085442 -0.035391 -0.001585 -0.881921 -0.471397 0.000000 0.312500 0.500000 4 99 7 255
-0.085442 -0.035391 -0.001585 -0.956940 -0.290284 0.000000 0.312500 0.500000 4 99 7 255
-0.085442 -0.035391 0.001585 -0.956940 -0.290284 0.000000 0.312500 1.000000 4 99 7 255
-0.090704 -0.018042 0.001585 -0.956940 -0.290284 0.000000 0.281250 1.000000 4 99 7 255
-0.090704 -0.018042 -0.001585 -0.956940 -0.290284 0.000000 0.281250 0.500000 4 99 7 255
-0.090704 -0.018042 -0.001585 -0.995185 -0.098017 0.000000 0.281250 0.500000 4 99 7 255
-0.090704 -0.018042 0.001585 -0.995185 -0.098017 0.000000 0.281250 1.000000 4 99 7 255
-0.092481 0.000000 0.001585 -0.995185 -0.098017 0.000000 0.250000 1.000000 4 99 7 255
-0.092481 0.000000 -0.001585 -0.995185 -0.098017 0.000000 0.250000 0.500000 4 99 7 255
-0.092481 0.000000 -0.001585 -0.995185 0.098017 0.000000 0.250000 0.500000 4 99 7 255
-0.092481 0.000000 0.001585 -0.995185 0.098017 0.000000 0.250000 1.000000 4 99 7 255
-0.090704 0.018042 0.001585 -0.995185 0.098017 0.000000 0.218750 1.000000 4 99 7 255
-0.090704 0.018042 -0.001585 -0.995185 0.098017 0.000000 0.218750 0.500000 4 99 7 255
-0.090704 0.018042 -0.001585 -0.956940 0.290285 0.000000 0.218750 0.500000 4 99 7 255
-0.090704 0.018042 0.001585 -0.956940 0.290285 0.000000 0.218750 1.000000 4 99 7 255
-0.085442 0.035391 0.001585 -0.956940 0.290285 0.000000 0.187500 1.000000 4 99 7 255
-0.085442 0.035391 -0.001585 -0.956940 0.290285 0.000000 0.187500 0.500000 4 99 7 255
-0.085442 0.035391 -0.001585 -0.881921 0.471397 0.000000 0.187500 0.500000 4 99 7 255
-0.085442 0.035391 0.001585 -0.881921 0.471397 0.000000 0.187500 1.000000 4 99 7 255
-0.076895 0.051380 0.001585 -0.881921 0.471397 0.000000 0.156250 1.000000 4 99 7 255
-0.076895 0.051380 -0.001585 -0.881921 0.471397 0.000000 0.156250 0.500000 4 99 7 255
-0.076895 0.051380 -0.001585 -0.773010 0.634393 0.000000 0.156250 0.500000 4 99 7 255
-0.076895 0.051380 0.001585 -0.773010 0.634393 0.000000 0.156250 1.000000 4 99 7 255
-0.065394 0.065394 0.001585 -0.773010 0.634393 0.000000 0.125000 1.000000 4 99 7 255
-0.065394 0.065394 -0.001585 -0.773010 0.634393 0.000000 0.125000 0.500000 5 99 8 255
-0.065394 0.065394 -0.001585 -0.634393 0.773010 0.000000 0.125000 0.500000 5 99 8 255
-0.065394 0.065394 0.001585 -0.634393 0.773010 0.000000 0.125000 1.000000 4 99 7 255
-0.051380 0.076895 0.001585 -0.634393 0.773010 0.000000 0.093750 1.000000 4 99 7 255
-0.051380 0.076895 -0.001585 -0.634393 0.773010 0.000000 0.093750 0.500000 4 99 7 255
-0.051380 0.076895 -0.001585 -0.471397 0.881921 0.000000 0.093750 0.500000 4 99 7 255
-0.051380 0.076895 0.001585 -0.471397 0.881921 0.000000 0.093750 1.000000 4 99 7 255
-0.035391 0.085442 0.001585 -0.471397 0.881921 0.000000 0.062500 1.000000 4 99 7 255
-0.035391 0.085442 -0.001585 -0.471397 0.881921 0.000000 0.062500 0.500000 4 99 7 255
0.018042 0.090704 0.001585 -0.000000 0.000000 1.000000 0.296822 0.485388 4 99 7 255
-0.000000 0.092481 0.001585 -0.000000 0.000000 1.000000 0.250000 0.490000 4 99 7 255
-0.018042 0.090704 0.001585 -0.000000 0.000000 1.000000 0.203178 0.485388 4 99 7 255
-0.035391 0.085442 0.001585 -0.000000 0.000000 1.000000 0.158156 0.471731 4 99 7 255
-0.051380 0.076895 0.001585 -0.000000 0.000000 1.000000 0.116663 0.449553 4 99 7 255
-0.065394 0.065394 0.001585 -0.000000 0.000000 1.000000 0.080294 0.419706 4 99 7 255
-0.076895 0.051380 0.001585 -0.000000 0.000000 1.000000 0.050447 0.383337 4 99 7 255
-0.085442 0.035391 0.001585 -0.000000 0.000000 1.000000 0.028269 0.341844 4 99 7 255
-0.090704 0.018042 0.001585 -0.000000 0.000000 1.000000 0.014612 0.296822 4 99 7 255
-0.092481 0.000000 0.001585 -0.000000 0.000000 1.000000 0.010000 0.250000 4 99 7 255
-0.090704 -0.018042 0.001585 -0.000000 0.000000 1.000000 0.014612 0.203178 4 99 7 255
-0.085442 -0.035391 0.001585 -0.000000 0.000000 1.000000 0.028269 0.158156 4 99 7 255
-0.076895 -0.051380 0.001585 -0.000000 0.000000 1.000000 0.050447 0.116663 4 99 7 255
-0.065394 -0.065394 0.001585 -0.000000 0.000000 1.000000 0.080294 0.080294 5 99 8 255
-0.051380 -0.076895 0.001585 -0.000000 0.000000 1.000000 0.116663 0.050447 5 99 7 255
-0.035391 -0.085442 0.001585 -0.000000 0.000000 1.000000 0.158156 0.028269 5 99 8 255
-0.018042 -0.090704 0.001585 -0.000000 0.000000 1.000000 0.203178 0.014612 5 99 8 255
-0.000000 -0.092481 0.001585 -0.000000 0.000000 1.000000 0.250000 0.010000 4 99 7 255
0.018042 -0.090704 0.001585 -0.000000 0.000000 1.000000 0.296822 0.014612 4 99 7 255
0.035391 -0.085442 0.001585 -0.000000 0.000000 1.000000 0.341844 0.028269 4 99 7 255
0.051380 -0.076895 0.001585 -0.000000 0.000000 1.000000 0.383337 0.050447 4 99 7 255
0.065394 -0.065394 0.001585 -0.000000 0.000000 1.000000 0.419706 0.080294 4 99 7 255
0.076895 -0.051380 0.001585 -0.000000 0.000000 1.000000 0.449553 0.116663 4 99 7 255
0.085442 -0.035391 0.001585 -0.000000 0.000000 1.000000 0.471731 0.158156 4 99 7 255
0.090704 -0.018042 0.001585 -0.000000 0.000000 1.000000 0.485388 0.203178 5 99 7 255
0.092481 -0.000000 0.001585 -0.000000 0.000000 1.000000 0.490000 0.250000 5 99 7 255
0.090704 0.018042 0.001585 -0.000000 0.000000 1.000000 0.485388 0.296822 4 99 7 255
0.085442 0.035391 0.001585 -0.000000 0.000000 1.000000 0.471731 0.341844 4 99 7 255
0.076895 0.051380 0.001585 -0.000000 0.000000 1.000000 0.449553 0.383337 4 99 7 255
0.065394 0.065394 0.001585 -0.000000 0.000000 1.000000 0.419706 0.419706 5 99 8 255
0.051380 0.076895 0.001585 -0.000000 0.000000 1.000000 0.383337 0.449553 4 99 7 255
0.035391 0.085442 0.001585 -0.000000 0.000000 1.000000 0.341844 0.471731 7 99 9 255
-0.035391 0.085442 -0.001585 -0.290284 0.956941 0.000000 0.062500 0.500000 4 99 7 255
-0.035391 0.085442 0.001585 -0.290284 0.956941 0.000000 0.062500 1.000000 4 99 7 255
-0.018042 0.090704 0.001585 -0.290284 0.956941 0.000000 0.031250 1.000000 4 99 7 255
-0.018042 0.090704 -0.001585 -0.290284 0.956941 0.000000 0.031250 0.500000 4 99 7 255
-0.018042 0.090704 -0.001585 -0.098018 0.995185 0.000000 0.031250 0.500000 4 99 7 255
-0.018042 0.090704 0.001585 -0.098018 0.995185 0.000000 0.031250 1.000000 4 99 7 255
-0.000000 0.092481 0.001585 -0.098018 0.995185 0.000000 0.000000 1.000000 4 99 7 255
-0.000000 0.092481 -0.001585 -0.098018 0.995185 0.000000 0.000000 0.500000 4 99 7 255
-0.000000 0.092481 -0.001585 0.000000 0.000000 -1.000000 0.750000 0.490000 4 99 7 255
0.018042 0.090704 -0.001585 0.000000 0.000000 -1.000000 0.796822 0.485388 4 99 7 255
0.035391 0.085442 -0.001585 0.000000 0.000000 -1.000000 0.841844 0.471731 8 99 10 255
0.051380 0.076895 -0.001585 0.000000 0.000000 -1.000000 0.883337 0.449553 6 99 8 255
0.065394 0.065394 -0.001585 0.000000 0.000000 -1.000000 0.919706 0.419706 6 99 8 255
0.076895 0.051380 -0.001585 0.000000 0.000000 -1.000000 0.949553 0.383337 5 99 7 255
0.085442 0.035391 -0.001585 0.000000 0.000000 -1.000000 0.971731 0.341844 4 99 7 255
0.090704 0.018042 -0.001585 0.000000 0.000000 -1.000000 0.985388 0.296822 4 99 7 255
0.092481 -0.000000 -0.001585 0.000000 0.000000 -1.000000 0.990000 0.250000 5 99 8 255
0.090704 -0.018042 -0.001585 0.000000 0.000000 -1.000000 0.985388 0.203178 5 99 8 255
0.085442 -0.035391 -0.001585 0.000000 0.000000 -1.000000 0.971731 0.158156 4 99 7 255
0.076895 -0.051380 -0.001585 0.000000 0.000000 -1.000000 0.949553 0.116663 4 99 7 255
0.065394 -0.065394 -0.001585 0.000000 0.000000 -1.000000 0.919706 0.080294 4 99 7 255
0.051380 -0.076895 -0.001585 0.000000 0.000000 -1.000000 0.883337 0.050447 4 99 7 255
0.035391 -0.085442 -0.001585 0.000000 0.000000 -1.000000 0.841844 0.028269 4 99 7 255
0.018042 -0.090704 -0.001585 0.000000 0.000000 -1.000000 0.796822 0.014612 4 99 7 255
-0.000000 -0.092481 -0.001585 0.000000 0.000000 -1.000000 0.750000 0.010000 4 99 7 255
-0.018042 -0.090704 -0.001585 0.000000 0.000000 -1.000000 0.703178 0.014612 6 99 8 255
-0.035391 -0.085442 -0.001585 0.000000 0.000000 -1.000000 0.658156 0.028269 5 99 8 255
-0.051380 -0.076895 -0.001585 0.000000 0.000000 -1.000000 0.616663 0.050447 5 99 8 255
-0.065394 -0.065394 -0.001585 0.000000 0.000000 -1.000000 0.580294 0.080294 6 99 9 255
-0.076895 -0.051380 -0.001585 0.000000 0.000000 -1.000000 0.550447 0.116663 5 99 7 255
-0.085442 -0.035391 -0.001585 0.000000 0.000000 -1.000000 0.528269 0.158156 4 99 7 255
-0.090704 -0.018042 -0.001585 0.000000 0.000000 -1.000000 0.514612 0.203178 4 99 7 255
-0.092481 0.000000 -0.001585 0.000000 0.000000 -1.000000 0.510000 0.250000 4 99 7 255
-0.090704 0.018042 -0.001585 0.000000 0.000000 -1.000000 0.514612 0.296822 4 99 7 255
-0.085442 0.035391 -0.001585 0.000000 0.000000 -1.000000 0.528269 0.341844 4 99 7 255
-0.076895 0.051380 -0.001585 0.000000 0.000000 -1.000000 0.550447 0.383337 4 99 7 255
-0.065394 0.065394 -0.001585 0.000000 0.000000 -1.000000 0.580294 0.419706 5 99 8 255
-0.051380 0.076895 -0.001585 0.000000 0.000000 -1.000000 0.616663 0.449553 4 99 7 255
-0.035391 0.085442 -0.001585 0.000000 0.000000 -1.000000 0.658156 0.471731 4 99 7 255
-0.018042 0.090704 -0.001585 0.000000 0.000000 -1.000000 0.703178 0.485388 4 99 7 255
4 0 1 2 3
4 4 5 6 7
4 8 9 10 11
4 12 13 14 15
4 16 17 18 19
4 20 21 22 23
4 24 25 26 27
4 28 29 30 31
4 32 33 34 35
4 36 37 38 39
4 40 41 42 43
4 44 45 46 47
4 48 49 50 51
4 52 53 54 55
4 56 57 58 59
4 60 61 62 63
4 64 65 66 67
4 68 69 70 71
4 72 73 74 75
4 76 77 78 79
4 80 81 82 83
4 84 85 86 87
4 88 89 90 91
4 92 93 94 95
4 96 97 98 99
4 100 101 102 103
4 104 105 106 107
4 108 109 110 111
4 112 113 114 115
4 116 117 118 119
32 120 121 122 123 124 125 126 127 128 129 130 131 132 133 134 135 136 137 138 139 140 141 142 143 144 145 146 147 148 149 150 151
4 152 153 154 155
4 156 157 158 159
32 160 161 162 163 164 165 166 167 168 169 170 171 172 173 174 175 176 177 178 179 180 181 182 183 184 185 186 187 188 189 190 191
4 192 193 194 195
4 196 197 198 199
4 200 201 202 203
4 204 205 206 207
4 208 209 210 211
4 212 213 214 215
4 216 217 218 219
4 220 221 222 223
4 224 225 226 227
4 228 229 230 231
4 232 233 234 235
4 236 237 238 239
4 240 241 242 243
4 244 245 246 247
4 248 249 250 251
4 252 253 254 255
4 256 257 258 259
4 260 261 262 263
4 264 265 266 267
4 268 269 270 271
4 272 273 274 275
4 276 277 278 279
4 280 281 282 283
4 284 285 286 287
4 288 289 290 291
4 292 293 294 295
4 296 297 298 299
4 300 301 302 303
4 304 305 306 307
4 308 309 310 311
32 312 313 314 315 316 317 318 319 320 321 322 323 324 325 326 327 328 329 330 331 332 333 334 335 336 337 338 339 340 341 342 343
4 344 345 346 347
4 348 349 350 351
32 352 353 354 355 356 357 358 359 360 361 362 363 364 365 366 367 368 369 370 371 372 373 374 375 376 377 378 379 380 381 382 383
