ply
format ascii 1.0
comment Created by Blender 3.0.1 - www.blender.org
element vertex 24
property float x
property float y
property float z
property float nx
property float ny
property float nz
property uchar red
property uchar green
property uchar blue
property uchar alpha
element face 12
property list uchar uint vertex_indices
end_header
0.005000 0.005000 0.040000 0.000000 -0.000000 1.000000 1 255 0 255
-0.005000 0.005000 0.040000 0.000000 -0.000000 1.000000 23 254 2 255
0.005000 -0.005000 0.040000 0.000000 -0.000000 1.000000 0 255 0 255
-0.005000 -0.005000 0.040000 -0.000000 0.000000 1.000000 6 255 0 255
-0.015000 0.015000 0.000000 0.000000 0.000000 -1.000000 26 254 0 255
0.015000 0.015000 0.000000 0.000000 0.000000 -1.000000 22 254 5 255
-0.015000 -0.015000 0.000000 0.000000 0.000000 -1.000000 3 255 1 255
0.015000 -0.015000 0.000000 -0.000000 0.000000 -1.000000 0 255 0 255
0.015000 0.015000 0.000000 -0.000000 0.970142 0.242536 22 254 5 255
-0.015000 0.015000 0.000000 -0.000000 0.970142 0.242536 26 254 0 255
0.005000 0.005000 0.040000 -0.000000 0.970142 0.242536 1 255 0 255
-0.005000 0.005000 0.040000 0.000000 0.970142 0.242536 23 254 2 255
0.015000 0.015000 0.000000 0.970142 0.000000 0.242536 22 254 5 255
0.005000 0.005000 0.040000 0.970142 0.000000 0.242536 1 255 0 255
0.015000 -0.015000 0.000000 0.970142 0.000000 0.242536 0 255 0 255
0.005000 -0.005000 0.040000 0.970142 -0.000000 0.242536 0 255 0 255
0.015000 -0.015000 0.000000 0.000000 -0.970142 0.242536 0 255 0 255
0.005000 -0.005000 0.040000 0.000000 -0.970142 0.242536 0 255 0 255
-0.015000 -0.015000 0.000000 0.000000 -0.970142 0.242536 3 255 1 255
-0.005000 -0.005000 0.040000 0.000000 -0.970142 0.242536 6 255 0 255
-0.015000 0.015000 0.000000 -0.970142 0.000000 0.242536 26 254 0 255
-0.015000 -0.015000 0.000000 -0.970142 0.000000 0.242536 3 255 1 255
-0.005000 0.005000 0.040000 -0.970142 0.000000 0.242536 23 254 2 255
-0.005000 -0.005000 0.040000 -0.970142 0.000000 0.242536 6 255 0 255
3 0 1 2
3 2 1 3
3 4 5 6
3 6 5 7
3 8 9 10
3 10 9 11
3 12 13 14
3 14 13 15
3 16 17 18
3 18 17 19
3 20 21 22
3 22 21 23
